<?xml version="1.0" standalone="no"?>
<!DOCTYPE svg PUBLIC "-//W3C//DTD SVG 20010904//EN"
 "http://www.w3.org/TR/2001/REC-SVG-20010904/DTD/svg10.dtd">
<svg version="1.0" xmlns="http://www.w3.org/2000/svg"
 width="1024.000000pt" height="1024.000000pt" viewBox="0 0 1024.000000 1024.000000"
 preserveAspectRatio="xMidYMid meet">

<g transform="translate(0.000000,1024.000000) scale(0.100000,-0.100000)"
fill="#000000" stroke="none">
<path d="M0 5120 l0 -5120 5120 0 5120 0 0 5120 0 5120 -5120 0 -5120 0 0
-5120z m3177 3898 c-3 -8 -6 -5 -6 6 -1 11 2 17 5 13 3 -3 4 -12 1 -19z m24
-65 c13 -16 12 -17 -3 -4 -10 7 -18 15 -18 17 0 8 8 3 21 -13z m535 -7 c19
-19 18 -45 -3 -68 -30 -33 -83 -17 -83 26 0 45 55 72 86 42z m-406 -93 c0 -7
-58 36 -66 49 -4 7 9 -1 29 -16 20 -16 37 -30 37 -33z m3405 27 c-3 -5 -12
-10 -18 -10 -7 0 -6 4 3 10 19 12 23 12 15 0z m-3370 -50 c10 -11 16 -20 13
-20 -3 0 -13 9 -23 20 -10 11 -16 20 -13 20 3 0 13 -9 23 -20z m3265 -5 c0 -2
-10 -9 -22 -15 -22 -11 -22 -10 -4 4 21 17 26 19 26 11z m-90 -50 c0 -2 -10
-9 -22 -15 -22 -11 -22 -10 -4 4 21 17 26 19 26 11z m1600 -39 c0 -2 -7 -7
-16 -10 -8 -3 -12 -2 -9 4 6 10 25 14 25 6z m-6655 -24 c-3 -3 -11 0 -18 7 -9
10 -8 11 6 5 10 -3 15 -9 12 -12z m4892 5 c6 0 8 -7 5 -16 -5 -14 -4 -14 14
-1 17 13 18 13 8 0 -6 -8 -14 -27 -18 -41 -6 -29 -28 -39 -66 -29 -36 8 -41
61 -8 84 13 9 30 13 38 10 8 -4 20 -7 27 -7z m-4802 -55 c-3 -3 -11 0 -18 7
-9 10 -8 11 6 5 10 -3 15 -9 12 -12z m5535 3 c0 -2 -10 -9 -22 -15 -22 -11
-22 -10 -4 4 21 17 26 19 26 11z m-5370 -91 c0 -2 -9 0 -20 6 -11 6 -20 13
-20 16 0 2 9 0 20 -6 11 -6 20 -13 20 -16z m240 -130 c0 -2 -9 0 -20 6 -11 6
-20 13 -20 16 0 2 9 0 20 -6 11 -6 20 -13 20 -16z m4680 -28 c0 -2 -7 -7 -16
-10 -8 -3 -12 -2 -9 4 6 10 25 14 25 6z m840 -30 c0 -2 -7 -7 -16 -10 -8 -3
-12 -2 -9 4 6 10 25 14 25 6z m-4200 -31 c0 -2 -10 -9 -22 -15 -22 -11 -22
-10 -4 4 21 17 26 19 26 11z m3190 -30 c0 -2 -10 -9 -22 -15 -22 -11 -22 -10
-4 4 21 17 26 19 26 11z m-90 -50 c0 -2 -10 -9 -22 -15 -22 -11 -22 -10 -4 4
21 17 26 19 26 11z m-4985 -43 c-3 -3 -11 0 -18 7 -9 10 -8 11 6 5 10 -3 15
-9 12 -12z m4875 -17 c0 -2 -13 -11 -30 -20 -38 -19 -40 -11 -2 9 31 17 32 18
32 11z m-70 -40 c12 -23 12 -28 -6 -44 -25 -25 -64 -12 -64 22 0 49 48 64 70
22z m-3735 -3 c-3 -3 -11 0 -18 7 -9 10 -8 11 6 5 10 -3 15 -9 12 -12z m-781
-38 c21 -20 20 -43 -1 -66 -20 -22 -51 -23 -74 -2 -19 17 -16 37 9 67 19 21
46 22 66 1z m946 -50 c0 -2 -13 2 -30 11 -16 9 -30 18 -30 21 0 2 14 -2 30
-11 17 -9 30 -18 30 -21z m649 -1 c2 -2 0 -3 -6 -3 -6 0 -21 9 -34 21 l-24 20
30 -17 c17 -10 32 -19 34 -21z m-519 -69 c0 -2 -13 2 -30 11 -16 9 -30 18 -30
21 0 2 14 -2 30 -11 17 -9 30 -18 30 -21z m740 -50 c0 -2 -13 2 -30 11 -16 9
-30 18 -30 21 0 2 14 -2 30 -11 17 -9 30 -18 30 -21z m3246 7 c0 -11 -5 -17
-13 -14 -17 6 -17 20 0 26 6 3 12 6 12 6 1 1 1 -7 1 -18z m-3164 -16 c14 -30
-3 -55 -37 -55 -34 0 -48 22 -34 54 16 35 55 35 71 1z m4824 -31 c18 -14 18
-14 -6 -3 -31 14 -36 19 -24 19 6 0 19 -7 30 -16z m-3142 -24 c73 -25 177 -81
231 -124 22 -18 60 -44 85 -58 104 -60 191 -186 232 -337 19 -67 22 -110 25
-379 3 -210 0 -308 -7 -317 -8 -9 -8 -15 0 -20 5 -3 10 -24 10 -45 0 -31 -5
-43 -26 -56 -14 -10 -39 -17 -55 -17 -18 0 -25 -3 -17 -8 16 -10 -36 -31 -73
-31 -15 0 -73 27 -130 60 l-104 60 -3 61 c-2 34 -6 61 -10 61 -3 0 -45 -19
-92 -42 -47 -23 -226 -110 -399 -195 -173 -84 -316 -151 -319 -148 -2 2 33 22
79 44 46 21 231 111 412 199 l327 161 0 295 c0 163 3 296 6 296 4 0 38 -26 76
-57 38 -32 81 -67 96 -78 l26 -19 -24 43 c-34 59 -160 192 -250 264 l-74 59
-61 -6 c-275 -29 -524 -274 -620 -611 -29 -100 -46 -299 -44 -493 2 -109 3
-112 23 -107 18 4 17 3 -3 -7 -23 -12 -24 -13 -17 -129 4 -65 4 -144 0 -177
l-6 -59 -72 -28 c-39 -15 -83 -28 -97 -28 -15 0 -71 24 -125 55 l-99 55 -3 52
c-4 60 -5 61 -106 8 -81 -43 -116 -78 -116 -116 0 -35 -3 -33 249 -165 l163
-86 47 42 c26 24 99 66 171 101 437 208 646 309 973 470 356 174 371 180 441
185 59 4 82 0 122 -17 l49 -21 -32 28 c-18 16 -80 52 -138 82 -58 29 -103 55
-101 57 9 9 228 -112 262 -145 53 -51 94 -146 106 -244 6 -46 8 -279 6 -544
-1 -254 0 -457 4 -451 15 23 8 0 -12 -38 -32 -63 -24 -68 35 -20 31 25 59 45
63 45 9 0 -90 -89 -100 -90 -3 0 -27 -31 -52 -69 -52 -77 -143 -167 -212 -207
l-46 -27 54 -23 c160 -68 295 -188 339 -304 23 -61 25 -151 4 -210 -17 -47
-90 -154 -127 -185 -147 -122 -367 -219 -613 -268 -69 -14 -109 -26 -95 -28
l25 -4 -28 -19 c-35 -24 -125 -29 -197 -12 -30 8 -134 17 -230 20 -156 5 -248
14 -345 32 -23 4 -26 3 -15 -5 9 -6 10 -11 3 -11 -6 0 -13 -6 -16 -12 -2 -7
-3 -5 -2 4 4 26 -20 40 -57 34 -18 -3 -27 -3 -19 1 8 3 -27 18 -80 33 -212 61
-366 140 -480 247 -78 74 -132 169 -144 252 -6 46 -10 52 -52 77 -62 36 -82
84 -84 197 l-1 86 -37 10 -36 11 37 -4 37 -5 -2 121 -2 120 -103 45 c-57 25
-101 47 -99 49 2 2 45 -14 95 -36 105 -46 112 -47 112 -21 0 13 -20 28 -74 52
-41 18 -72 37 -69 42 3 5 8 5 12 1 6 -9 116 -64 127 -64 3 0 4 10 2 22 -2 12
-18 30 -38 41 -40 22 -59 37 -45 37 6 0 24 -9 40 -20 17 -11 33 -20 37 -20 4
0 7 130 8 289 0 313 6 359 58 455 15 28 58 83 97 122 54 54 87 78 146 104 l76
34 6 360 c6 394 13 460 69 636 119 372 437 699 738 759 30 6 64 13 75 15 40
10 161 -4 219 -24z m1616 -15 c0 -3 -18 4 -40 15 -22 11 -40 23 -40 25 0 3 18
-4 40 -15 22 -11 40 -23 40 -25z m-3865 -5 c3 -6 -1 -7 -9 -4 -18 7 -21 14 -7
14 6 0 13 -4 16 -10z m4094 -116 c14 -12 -19 -1 -35 12 -18 14 -18 14 6 3 14
-6 27 -13 29 -15z m51 -29 c0 -2 -6 -5 -13 -8 -8 -3 -14 1 -14 8 0 7 6 11 14
8 7 -3 13 -6 13 -8z m810 -20 c0 -2 -10 -9 -22 -15 -22 -11 -22 -10 -4 4 21
17 26 19 26 11z m-880 -19 c0 -2 -7 -7 -16 -10 -8 -3 -12 -2 -9 4 6 10 25 14
25 6z m-4040 -62 c0 -2 -9 0 -20 6 -11 6 -20 13 -20 16 0 2 9 0 20 -6 11 -6
20 -13 20 -16z m-1277 -22 c22 -9 51 -62 34 -62 -7 -1 -1 -10 12 -21 l25 -20
-26 6 c-15 4 -29 2 -32 -4 -12 -18 -62 -12 -81 9 -26 29 -31 87 -8 93 27 7 56
6 76 -1z m1467 -77 c0 -3 -22 6 -50 20 -27 14 -50 28 -50 30 0 3 23 -6 50 -20
28 -14 50 -28 50 -30z m5930 51 c0 -2 -7 -7 -16 -10 -8 -3 -12 -2 -9 4 6 10
25 14 25 6z m-1450 -10 c0 -2 -7 -7 -16 -10 -8 -3 -12 -2 -9 4 6 10 25 14 25
6z m-880 -11 c0 -2 -10 -9 -22 -15 -22 -11 -22 -10 -4 4 21 17 26 19 26 11z
m2228 -7 c9 -9 18 -9 39 1 28 11 28 11 6 -6 -12 -10 -23 -29 -25 -42 -4 -32
-50 -49 -84 -30 -18 9 -23 18 -18 33 15 48 56 70 82 44z m-1428 -23 c0 -2 -10
-9 -22 -15 -22 -11 -22 -10 -4 4 21 17 26 19 26 11z m-4325 -43 c-3 -3 -11 0
-18 7 -9 10 -8 11 6 5 10 -3 15 -9 12 -12z m3340 -3 c4 -6 14 -8 22 -5 9 4 11
2 6 -7 -4 -6 -6 -20 -5 -29 7 -39 -66 -43 -81 -4 -12 31 41 73 58 45z m-3265
-35 c0 -2 -9 0 -20 6 -11 6 -20 13 -20 16 0 2 9 0 20 -6 11 -6 20 -13 20 -16z
m55 -32 c-3 -3 -11 0 -18 7 -9 10 -8 11 6 5 10 -3 15 -9 12 -12z m4010 8 c-3
-5 -12 -10 -18 -10 -7 0 -6 4 3 10 19 12 23 12 15 0z m-35 -15 c0 -2 -13 -11
-30 -20 -38 -19 -40 -11 -2 9 31 17 32 18 32 11z m-5305 -53 c-3 -3 -11 0 -18
7 -9 10 -8 11 6 5 10 -3 15 -9 12 -12z m6655 14 c0 -2 -7 -7 -16 -10 -8 -3
-12 -2 -9 4 6 10 25 14 25 6z m-1460 -21 c0 -2 -13 -11 -30 -20 -38 -19 -40
-11 -2 9 31 17 32 18 32 11z m-5030 -81 c0 -2 -9 0 -20 6 -11 6 -20 13 -20 16
0 2 9 0 20 -6 11 -6 20 -13 20 -16z m6047 -265 c166 -85 220 -109 250 -108
l38 1 -45 13 c-62 18 -12 19 55 1 72 -19 197 -84 189 -98 -4 -6 -3 -8 4 -5 15
10 43 -3 35 -16 -3 -5 -1 -7 5 -4 15 10 43 -3 35 -16 -3 -5 -1 -7 5 -3 14 9
63 -14 55 -27 -3 -6 -1 -7 6 -3 12 8 241 -112 241 -127 0 -4 -5 -5 -11 -1 -8
5 -8 1 0 -14 6 -12 11 -73 11 -141 l0 -121 38 -19 c43 -22 96 -78 107 -111 10
-30 -2 -38 -14 -9 -20 53 -64 79 -556 337 -115 60 -238 124 -272 141 -108 54
-69 26 55 -40 64 -34 135 -72 157 -84 22 -12 144 -77 270 -145 127 -68 245
-134 264 -148 18 -14 42 -45 53 -70 20 -44 20 -58 13 -334 -4 -159 -11 -301
-15 -316 -5 -15 -9 113 -9 296 -1 345 -2 353 -53 398 -20 19 -151 89 -543 295
-66 34 -221 116 -345 182 -424 226 -515 274 -648 342 -133 68 -133 68 -166 53
l-33 -16 -6 -243 c-4 -133 -7 -369 -7 -523 0 -257 2 -283 19 -309 10 -16 29
-34 42 -41 13 -8 78 -41 144 -76 66 -34 156 -81 200 -105 44 -24 105 -56 135
-72 30 -16 143 -77 250 -135 209 -113 254 -137 515 -276 286 -152 340 -182
331 -182 -8 0 -106 51 -331 170 -290 154 -286 153 -314 141 -24 -11 -25 -10
-7 4 11 8 18 16 15 19 -2 2 -56 30 -120 63 -63 33 -126 67 -140 75 -13 9 -64
36 -113 62 l-88 46 -104 -56 c-57 -31 -104 -53 -104 -51 0 3 43 28 95 57 53
28 93 54 91 59 -3 4 -52 31 -109 60 l-104 53 -72 -36 c-39 -20 -71 -34 -71
-31 0 2 30 20 67 38 l66 34 -121 61 -121 62 -52 -30 c-28 -17 -53 -29 -55 -27
-2 2 18 16 46 31 46 25 64 46 40 46 -5 0 -17 15 -27 33 -16 29 -18 76 -21 553
-2 336 1 530 7 547 7 17 27 35 56 49 l45 22 55 -27 c31 -15 60 -27 65 -27 6 0
10 26 10 58 0 56 1 58 38 78 l37 21 165 -85 c91 -47 260 -134 377 -193z
m-1197 247 c0 -2 -7 -7 -16 -10 -8 -3 -12 -2 -9 4 6 10 25 14 25 6z m-4625
-96 c3 -6 -1 -7 -9 -4 -18 7 -21 14 -7 14 6 0 13 -4 16 -10z m-1001 -121 c122
-62 226 -115 231 -119 42 -32 339 -170 365 -170 18 0 29 4 25 10 -3 6 -16 10
-27 10 -12 0 -19 3 -16 6 10 9 78 -8 72 -18 -3 -5 0 -9 7 -7 26 3 40 -1 35
-10 -3 -5 1 -12 10 -15 9 -3 12 -2 9 5 -4 6 16 -1 44 -15 28 -15 51 -29 51
-32 0 -3 -5 -2 -12 2 -7 4 -8 3 -4 -5 4 -6 12 -8 18 -5 13 8 59 -16 52 -27 -3
-5 3 -6 12 -2 13 5 15 3 9 -7 -5 -8 -4 -11 3 -7 15 10 43 -3 35 -16 -3 -6 -1
-7 5 -3 13 8 123 -44 116 -56 -3 -4 3 -5 12 -1 13 5 15 3 9 -7 -5 -8 -4 -11 3
-6 12 7 106 -37 118 -56 4 -6 -8 -2 -28 10 -50 31 -61 28 -13 -4 l40 -25 -2
-130 -2 -130 26 -10 c15 -5 33 -7 40 -5 8 3 12 2 8 -3 -3 -5 10 -19 29 -30 34
-22 66 -74 66 -108 -1 -13 -5 -10 -17 12 -31 59 -25 55 -333 217 -216 114
-524 270 -515 261 6 -6 57 -35 115 -65 207 -108 566 -301 623 -335 96 -58 97
-62 97 -391 0 -280 -5 -372 -21 -372 -5 0 -9 147 -9 328 0 304 -1 329 -19 358
-23 37 -18 35 -641 359 -261 136 -557 292 -657 346 -255 138 -399 209 -423
209 -12 0 -32 -11 -45 -25 l-25 -24 0 -514 c0 -590 -8 -543 98 -592 99 -47
212 -105 367 -190 162 -89 497 -266 1050 -555 193 -101 229 -121 240 -132 9
-10 -140 66 -375 190 -223 118 -305 160 -615 322 -66 35 -138 73 -160 85 -22
12 -85 46 -140 75 -55 29 -134 71 -175 94 -41 23 -109 57 -150 76 -41 19 -87
43 -103 53 -58 39 -57 28 -57 605 l0 529 23 20 c12 11 36 27 52 36 28 14 34
13 94 -14 35 -16 65 -29 66 -29 2 0 1 26 -2 58 l-5 57 39 22 c21 13 42 23 47
23 5 0 109 -50 230 -111z m1176 26 c0 -3 -27 8 -60 25 -33 17 -60 33 -60 35 0
3 27 -8 60 -25 33 -17 60 -33 60 -35z m75 -43 c-3 -3 -11 0 -18 7 -9 10 -8 11
6 5 10 -3 15 -9 12 -12z m115 -57 c0 -3 -22 6 -50 20 -27 14 -50 28 -50 30 0
3 23 -6 50 -20 28 -14 50 -28 50 -30z m6785 -35 c-3 -5 -12 -10 -18 -10 -7 0
-6 4 3 10 19 12 23 12 15 0z m-6666 -26 c14 -12 -19 -1 -35 12 -18 14 -18 14
6 3 14 -6 27 -13 29 -15z m4711 -94 c46 -23 80 -47 80 -55 0 -20 3 -21 -91 24
-46 22 -84 47 -85 55 -3 23 8 20 96 -24z m13 -101 c57 -30 77 -45 77 -60 0
-18 -8 -16 -82 25 -46 25 -84 52 -86 61 -5 22 5 19 91 -26z m-6530 -25 c108
-63 104 -88 -5 -33 -78 39 -97 53 -98 72 0 15 28 5 103 -39z m4677 -14 c8 -5
11 -10 5 -10 -5 0 -17 5 -25 10 -8 5 -10 10 -5 10 6 0 17 -5 25 -10z m2143
-116 c37 -19 67 -41 67 -49 0 -22 -6 -20 -115 36 -134 69 -145 76 -145 99 0
17 6 15 63 -17 34 -19 92 -50 130 -69z m-238 74 c16 -7 25 -19 25 -35 0 -21
-2 -23 -22 -12 -26 13 -38 28 -38 47 0 15 3 15 35 0z m-6570 -36 c39 -22 72
-46 73 -56 5 -23 -11 -18 -101 30 -37 19 -67 42 -67 50 0 22 19 17 95 -24z
m6670 -77 c87 -47 170 -94 184 -104 14 -10 54 -32 88 -50 67 -33 81 -47 65
-63 -7 -7 -19 -4 -39 9 -15 11 -111 64 -213 118 -204 108 -260 141 -260 153 0
8 10 22 15 22 1 0 73 -38 160 -85z m189 -51 c12 -31 -20 -22 -129 36 -87 46
-115 66 -115 81 0 17 15 12 119 -42 66 -34 122 -67 125 -75z m-6576 -24 c66
-34 80 -46 66 -60 -5 -5 -61 18 -129 54 -94 49 -121 68 -123 86 -4 22 -2 22
60 -12 34 -20 91 -50 126 -68z m-208 40 c0 -11 -4 -20 -9 -20 -19 0 -64 47
-57 58 11 18 66 -14 66 -38z m20 -54 c52 -27 145 -77 205 -111 61 -34 133 -74
162 -88 40 -21 50 -31 46 -46 -5 -18 -7 -17 -51 10 -26 16 -141 77 -257 136
-175 90 -211 112 -213 132 -2 13 0 22 5 20 4 -3 51 -26 103 -53z m129 -10 c79
-43 111 -65 111 -78 0 -10 -3 -18 -6 -18 -3 0 -57 28 -120 62 -82 45 -114 68
-114 81 0 22 -8 25 129 -47z m6491 10 c171 -87 463 -252 467 -264 3 -7 3 -15
0 -18 -3 -3 -93 41 -199 99 -106 57 -230 124 -275 148 -58 31 -83 50 -83 62 0
10 3 17 8 15 4 -2 41 -20 82 -42z m-96 -21 c58 -26 76 -39 76 -54 0 -19 -7
-17 -82 20 -46 21 -84 46 -86 54 -5 22 7 19 92 -20z m216 -107 c68 -36 100
-59 100 -70 0 -10 -4 -18 -9 -18 -23 0 -194 107 -197 123 -1 9 0 17 2 17 3 0
49 -24 104 -52z m-6727 -8 c70 -36 87 -49 87 -67 0 -21 -3 -20 -70 18 -39 22
-82 44 -95 49 -16 6 -25 17 -25 31 0 11 3 19 8 17 4 -2 46 -23 95 -48z m417
-154 c41 -23 87 -47 103 -55 15 -8 27 -23 27 -34 0 -10 -3 -17 -8 -15 -4 2
-75 38 -157 82 -314 164 -355 189 -355 207 0 15 29 3 158 -63 86 -45 191 -100
232 -122z m6282 116 c70 -37 255 -134 412 -217 216 -113 286 -154 286 -168 0
-15 -34 -1 -182 76 -101 52 -290 149 -420 216 -187 96 -238 126 -238 142 0 10
3 19 8 19 4 0 64 -31 134 -68z m-202 -50 c90 -45 116 -62 118 -80 3 -21 -1
-20 -70 19 -40 22 -97 52 -125 65 -29 14 -53 32 -53 40 0 8 3 14 8 14 4 0 59
-26 122 -58z m77 23 c61 -35 73 -48 54 -60 -14 -8 -141 64 -141 81 0 21 17 17
87 -21z m239 -91 c145 -75 244 -131 244 -140 0 -8 -5 -14 -12 -14 -15 0 -220
109 -300 159 -34 22 -85 54 -113 70 -69 41 -81 50 -72 50 5 1 119 -56 253
-125z m-5306 91 c0 -2 -10 -9 -22 -15 -22 -11 -22 -10 -4 4 21 17 26 19 26 11z
m-1283 -57 c77 -40 90 -50 86 -68 -6 -24 -4 -24 -45 -1 -18 11 -58 33 -88 49
-38 20 -56 36 -58 52 -2 12 0 21 5 19 4 -3 49 -25 100 -51z m-817 27 c17 -9
30 -18 30 -21 0 -4 -59 23 -69 32 -10 9 13 3 39 -11z m1014 -189 c474 -242
466 -238 466 -258 0 -10 -2 -18 -4 -18 -2 0 -55 27 -117 61 -63 33 -249 128
-414 210 -165 83 -304 154 -309 159 -8 8 0 30 11 30 4 0 169 -83 367 -184z
m-929 136 c-3 -3 -11 0 -18 7 -9 10 -8 11 6 5 10 -3 15 -9 12 -12z m591 -106
c1 0 4 -17 7 -36 7 -34 7 -35 -11 -14 -9 12 -66 47 -127 79 -60 32 -111 59
-113 60 -1 1 0 9 3 17 5 11 31 2 123 -45 64 -33 117 -60 118 -61z m6701 61
c65 -35 198 -103 296 -151 136 -68 177 -92 177 -107 0 -10 -2 -19 -3 -19 -12
0 -564 283 -579 297 -16 14 -25 43 -14 43 2 0 57 -28 123 -63z m-6711 17 c49
-19 175 -77 281 -129 175 -85 208 -107 188 -127 -3 -3 -61 23 -128 57 -67 35
-189 93 -270 131 -82 37 -153 76 -158 86 -5 10 -8 18 -6 18 3 0 44 -16 93 -36z
m-506 -10 c0 -2 -13 2 -30 11 -16 9 -30 18 -30 21 0 2 14 -2 30 -11 17 -9 30
-18 30 -21z m2613 1 c17 -8 22 -18 22 -50 0 -32 -5 -42 -26 -54 -22 -12 -29
-12 -55 0 -25 13 -29 20 -26 49 3 34 54 97 60 75 1 -6 13 -15 25 -20z m3597
-10 c0 -2 -10 -9 -22 -15 -22 -11 -22 -10 -4 4 21 17 26 19 26 11z m1079 -96
c138 -73 191 -106 189 -117 -4 -21 -3 -21 -148 55 -216 113 -250 134 -250 148
0 8 4 15 9 15 4 0 94 -45 200 -101z m-124 9 c72 -37 67 -32 59 -51 -5 -14 -17
-11 -82 22 -97 49 -127 73 -119 94 6 15 11 14 44 -9 21 -14 65 -40 98 -56z
m55 -103 c0 -8 -5 -15 -10 -15 -12 0 -310 149 -310 155 0 32 19 27 165 -47 94
-48 155 -84 155 -93z m-1082 150 c-10 -11 -172 -95 -175 -91 -4 3 157 93 171
95 5 0 7 -1 4 -4z m753 -50 c41 -21 68 -41 66 -48 -6 -15 -13 -13 -92 24 -36
17 -65 37 -65 45 0 21 13 18 91 -21z m-6004 -124 c166 -82 303 -154 303 -160
0 -5 -4 -12 -9 -15 -11 -7 -591 278 -602 296 -10 16 -11 28 -2 28 3 0 143 -67
310 -149z m-118 -1 c110 -54 202 -104 206 -111 11 -17 -11 -35 -27 -21 -7 5
-96 52 -198 102 -102 51 -191 97 -197 103 -13 10 -8 27 8 27 5 0 99 -45 208
-100z m-155 25 c73 -35 105 -55 106 -67 0 -25 -7 -23 -107 24 -97 46 -123 64
-123 85 0 18 -7 20 124 -42z m5336 50 c0 -2 -22 -16 -50 -30 -27 -14 -50 -23
-50 -20 0 2 21 16 48 29 53 28 52 28 52 21z m-5403 -84 c98 -47 169 -86 171
-95 5 -23 -11 -20 -86 18 -37 18 -111 53 -164 76 -73 32 -98 48 -98 61 0 11 2
19 4 19 3 0 80 -36 173 -79z m-888 33 c14 -12 -19 -1 -35 12 -18 14 -18 14 6
3 14 -6 27 -13 29 -15z m711 -26 c47 -22 70 -39 70 -51 0 -16 -3 -16 -32 -3
-84 35 -127 61 -132 78 -5 23 -6 23 94 -24z m6175 13 c-14 -12 -252 -136 -242
-126 7 9 238 134 247 135 2 0 0 -4 -5 -9z m-730 -11 c-3 -5 -12 -10 -18 -10
-7 0 -6 4 3 10 19 12 23 12 15 0z m-6090 -10 c3 -6 -1 -7 -9 -4 -18 7 -21 14
-7 14 6 0 13 -4 16 -10z m6055 -4 c0 -2 -15 -14 -34 -26 -26 -16 -36 -29 -38
-53 -7 -69 -118 -73 -118 -3 0 39 9 52 40 64 17 7 33 6 51 -4 23 -11 31 -11
60 6 38 21 39 22 39 16z m-3736 -21 c11 -8 15 -15 10 -15 -6 0 -19 7 -30 15
-10 8 -14 14 -9 14 6 0 19 -6 29 -14z m456 -238 c201 -104 370 -194 375 -200
10 -10 -131 62 -557 285 -137 72 -248 132 -248 134 0 5 -15 13 430 -219z
m6560 209 c0 -2 -7 -7 -16 -10 -8 -3 -12 -2 -9 4 6 10 25 14 25 6z m-9175 -34
c-3 -3 -11 0 -18 7 -9 10 -8 11 6 5 10 -3 15 -9 12 -12z m80 -40 c-3 -3 -11 0
-18 7 -9 10 -8 11 6 5 10 -3 15 -9 12 -12z m6325 13 c0 -3 -27 -18 -60 -35
-33 -17 -60 -28 -60 -25 0 2 26 18 58 34 64 34 62 33 62 26z m460 -10 c0 -3
-27 -18 -60 -35 -33 -17 -60 -28 -60 -25 0 2 26 18 58 34 64 34 62 33 62 26z
m-6670 -60 c0 -3 -22 6 -50 20 -27 14 -50 28 -50 30 0 3 23 -6 50 -20 28 -14
50 -28 50 -30z m8830 50 c0 -2 -18 -14 -40 -25 -22 -11 -40 -18 -40 -15 0 2
17 13 38 24 42 23 42 23 42 16z m-2750 -49 c0 -4 -48 -30 -280 -154 -47 -25
-80 -40 -75 -34 8 8 343 191 353 192 1 0 2 -2 2 -4z m-5962 -127 l3 -66 40
-18 c22 -10 42 -22 45 -27 4 -5 -17 2 -45 16 l-51 26 0 65 0 65 -40 20 c-22
11 -40 23 -40 26 0 3 19 -5 43 -18 l42 -23 3 -66z m6397 102 c-6 -4 -55 -32
-110 -61 -55 -29 -147 -79 -205 -110 -58 -31 -154 -83 -215 -115 -60 -32 -114
-61 -119 -66 -6 -5 -14 -9 -20 -9 -19 0 9 17 137 84 70 37 218 117 330 177
197 106 221 118 202 100z m-4488 -107 c-4 -5 -117 56 -117 62 0 3 27 -9 60
-27 33 -18 59 -34 57 -35z m4813 31 c0 -2 -18 -14 -40 -25 -22 -11 -40 -18
-40 -15 0 2 17 13 38 24 42 23 42 23 42 16z m435 -14 c-13 -12 -152 -87 -143
-76 8 8 139 84 148 85 2 0 0 -4 -5 -9z m1255 4 c0 -2 -10 -9 -22 -15 -22 -11
-22 -10 -4 4 21 17 26 19 26 11z m-6290 -130 c0 -3 -40 15 -90 40 -49 25 -90
47 -90 50 0 3 41 -15 90 -40 50 -25 90 -47 90 -50z m4510 90 c0 -2 -18 -14
-40 -25 -22 -11 -40 -18 -40 -15 0 2 17 13 38 24 42 23 42 23 42 16z m1694
-10 c-10 -8 -23 -15 -28 -15 -6 0 -1 7 10 15 10 8 23 15 28 15 6 0 1 -7 -10
-15z m-2734 -40 c0 -3 -36 -23 -80 -45 -44 -22 -80 -38 -80 -35 0 4 146 82
158 85 1 0 2 -2 2 -5z m945 -5 c-3 -5 -12 -10 -18 -10 -7 0 -6 4 3 10 19 12
23 12 15 0z m460 0 c-3 -5 -12 -10 -18 -10 -7 0 -6 4 3 10 19 12 23 12 15 0z
m-500 -19 c-16 -13 -211 -115 -200 -103 10 10 195 112 205 112 2 0 0 -4 -5 -9z
m465 4 c0 -2 -13 -11 -30 -20 -38 -19 -40 -11 -2 9 31 17 32 18 32 11z m-6820
-40 c17 -9 30 -18 30 -21 0 -4 -59 23 -69 32 -10 9 13 3 39 -11z m2287 -142
c10 -7 -45 19 -122 58 -77 40 -144 76 -150 82 -14 13 250 -122 272 -140z
m4423 122 c0 -3 -31 -21 -70 -40 -38 -19 -70 -33 -70 -30 0 4 126 72 138 75 1
0 2 -2 2 -5z m-6645 -23 c-3 -3 -11 0 -18 7 -9 10 -8 11 6 5 10 -3 15 -9 12
-12z m7085 -6 c0 -2 -7 -7 -16 -10 -8 -3 -12 -2 -9 4 6 10 25 14 25 6z m-6810
-131 c0 -3 -54 22 -120 55 -66 33 -120 62 -120 65 0 3 54 -22 120 -55 66 -33
120 -62 120 -65z m1257 78 c-3 -10 -5 -4 -5 12 0 17 2 24 5 18 2 -7 2 -21 0
-30z m270 -69 c112 -59 202 -109 199 -111 -2 -3 -15 2 -28 10 -12 8 -104 56
-203 107 -99 51 -182 94 -184 96 -19 18 42 -12 216 -102z m4268 87 c-14 -12
-252 -136 -242 -126 7 9 238 134 247 135 2 0 0 -4 -5 -9z m2495 4 c0 -2 -13
-11 -30 -20 -38 -19 -40 -11 -2 9 31 17 32 18 32 11z m-1560 -10 c0 -2 -22
-16 -50 -30 -27 -14 -50 -23 -50 -20 0 2 21 16 48 29 53 28 52 28 52 21z
m-515 -15 c-3 -5 -12 -10 -18 -10 -7 0 -6 4 3 10 19 12 23 12 15 0z m-35 -15
c0 -2 -18 -14 -40 -25 -22 -11 -40 -18 -40 -15 0 2 17 13 38 24 42 23 42 23
42 16z m-950 -9 c0 -2 -7 -7 -16 -10 -8 -3 -12 -2 -9 4 6 10 25 14 25 6z
m2930 -21 c0 -2 -10 -9 -22 -15 -22 -11 -22 -10 -4 4 21 17 26 19 26 11z
m-1560 -9 c0 -5 -69 -46 -78 -46 -6 1 69 50 76 50 1 0 2 -2 2 -4z m-510 -11
c0 -2 -13 -11 -30 -20 -38 -19 -40 -11 -2 9 31 17 32 18 32 11z m-6055 -25 c3
-6 -1 -7 -9 -4 -18 7 -21 14 -7 14 6 0 13 -4 16 -10z m4833 -6 c-31 -30 -239
-175 -217 -150 15 16 205 156 213 156 5 0 7 -2 4 -6z m1133 -1 c0 -5 2 -17 4
-27 7 -39 -13 -58 -58 -54 -34 2 -59 -6 -137 -46 -52 -27 -111 -58 -130 -69
-19 -11 -30 -14 -23 -7 6 7 65 41 130 75 65 34 119 67 119 74 1 6 2 18 3 26 0
8 8 15 16 15 8 0 15 5 15 10 0 11 60 14 61 3z m2064 -3 c-3 -5 -12 -10 -18
-10 -7 0 -6 4 3 10 19 12 23 12 15 0z m-7966 -26 c14 -12 -19 -1 -35 12 -18
14 -18 14 6 3 14 -6 27 -13 29 -15z m5440 12 c-14 -13 -112 -66 -116 -62 -5 4
95 63 111 65 5 0 7 -1 5 -3z m951 -1 c0 -2 -18 -14 -40 -25 -22 -11 -40 -18
-40 -15 0 2 17 13 38 24 42 23 42 23 42 16z m-1550 -9 c0 -5 -112 -81 -165
-111 -70 -40 -51 -23 57 51 85 58 108 71 108 60z m-5852 -18 c7 -7 12 -22 12
-35 0 -29 -47 -44 -64 -20 -9 11 -17 13 -31 5 -18 -8 -18 -8 -4 4 9 7 19 23
23 36 8 24 44 30 64 10z m1222 -93 c0 -3 -45 17 -100 45 -55 28 -100 52 -100
55 0 3 45 -17 100 -45 55 -28 100 -52 100 -55z m-1705 77 c-3 -3 -11 0 -18 7
-9 10 -8 11 6 5 10 -3 15 -9 12 -12z m6395 4 c0 -5 -101 -71 -140 -91 -48 -24
-37 -15 50 44 69 46 90 57 90 47z m2960 -1 c0 -2 -10 -9 -22 -15 -22 -11 -22
-10 -4 4 21 17 26 19 26 11z m-9280 -41 c0 -2 -13 2 -30 11 -16 9 -30 18 -30
21 0 2 14 -2 30 -11 17 -9 30 -18 30 -21z m6300 -40 c-105 -62 -159 -90 -148
-79 15 16 214 133 228 134 8 0 -28 -24 -80 -55z m1380 51 c0 -2 -18 -14 -40
-25 -22 -11 -40 -18 -40 -15 0 2 17 13 38 24 42 23 42 23 42 16z m1510 -20 c0
-2 -13 -11 -30 -20 -38 -19 -40 -11 -2 9 31 17 32 18 32 11z m-6464 -52 c46
-26 82 -48 80 -51 -3 -3 -161 82 -175 94 -17 15 24 -3 95 -43z m3713 33 c-10
-9 -89 -46 -89 -41 0 6 72 44 84 45 5 0 7 -2 5 -4z m-6199 -11 c0 -6 -76 -45
-87 -45 -4 1 12 12 37 25 50 27 50 27 50 20z m3133 -35 c32 -12 56 -24 54 -26
-8 -8 -137 47 -137 58 0 7 4 7 13 0 7 -6 38 -20 70 -32z m4217 36 c0 -2 -7 -7
-16 -10 -8 -3 -12 -2 -9 4 6 10 25 14 25 6z m-7451 -32 c14 -12 -19 -1 -35 12
-18 14 -18 14 6 3 14 -6 27 -13 29 -15z m6366 6 c-3 -5 -12 -10 -18 -10 -7 0
-6 4 3 10 19 12 23 12 15 0z m1045 5 c0 -3 -36 -23 -80 -45 -44 -22 -80 -38
-80 -35 0 4 146 82 158 85 1 0 2 -2 2 -5z m-5845 -15 c3 -6 -1 -7 -9 -4 -18 7
-21 14 -7 14 6 0 13 -4 16 -10z m4435 5 c0 -2 -10 -9 -22 -15 -22 -11 -22 -10
-4 4 21 17 26 19 26 11z m2935 -5 c-3 -5 -12 -10 -18 -10 -7 0 -6 4 3 10 19
12 23 12 15 0z m-5747 -36 c40 -15 71 -28 69 -30 -5 -6 -161 47 -172 59 -12
12 6 7 103 -29z m3011 32 c-12 -10 -143 -78 -136 -71 10 12 120 74 131 75 5 0
7 -2 5 -4z m226 -16 c-3 -5 -12 -10 -18 -10 -7 0 -6 4 3 10 19 12 23 12 15 0z
m-4565 -135 c0 -3 -58 24 -130 60 -71 36 -130 67 -130 70 0 3 59 -24 130 -60
72 -36 130 -67 130 -70z m1495 104 c22 -10 29 -16 15 -13 -28 7 -80 33 -65 33
6 0 28 -9 50 -20z m3025 11 c-8 -5 -19 -10 -25 -10 -5 0 -3 5 5 10 8 5 20 10
25 10 6 0 3 -5 -5 -10z m-3320 -10 c8 -5 11 -10 5 -10 -5 0 -17 5 -25 10 -8 5
-10 10 -5 10 6 0 17 -5 25 -10z m2760 6 c0 -2 -19 -19 -42 -36 l-43 -32 37 36
c35 33 48 42 48 32z m400 -11 c-14 -8 -29 -14 -35 -14 -5 0 1 6 15 14 14 8 30
14 35 14 6 0 -1 -6 -15 -14z m231 -10 c-18 -8 -36 -15 -40 -15 -13 1 45 29 59
29 8 0 0 -6 -19 -14z m-3271 -21 c55 -20 22 -16 -45 6 -33 11 -44 17 -25 13
19 -3 50 -11 70 -19z m5630 21 c0 -2 -13 -11 -30 -20 -38 -19 -40 -11 -2 9 31
17 32 18 32 11z m-5480 -21 c23 -9 39 -18 37 -20 -2 -2 -25 5 -53 16 -27 10
-43 19 -37 20 7 0 31 -7 53 -16z m2560 11 c0 -8 -81 -57 -86 -52 -2 2 13 16
33 30 37 25 53 32 53 22z m-2793 -37 c46 -11 82 -23 80 -25 -6 -6 -168 36
-187 49 -12 8 -11 8 4 3 11 -3 57 -15 103 -27z m3163 22 c-8 -5 -19 -10 -25
-10 -5 0 -3 5 5 10 8 5 20 10 25 10 6 0 3 -5 -5 -10z m960 5 c0 -2 -18 -14
-40 -25 -22 -11 -40 -18 -40 -15 0 2 17 13 38 24 42 23 42 23 42 16z m-1090
-9 c0 -2 -7 -7 -16 -10 -8 -3 -12 -2 -9 4 6 10 25 14 25 6z m230 -6 c-8 -5
-19 -10 -25 -10 -5 0 -3 5 5 10 8 5 20 10 25 10 6 0 3 -5 -5 -10z m150 1 c-8
-5 -26 -11 -40 -15 -21 -5 -20 -3 5 9 32 15 60 20 35 6z m-3245 -11 c13 -5 14
-9 5 -9 -8 0 -24 4 -35 9 -13 5 -14 9 -5 9 8 0 24 -4 35 -9z m2684 7 c-16 -13
-79 -48 -79 -44 0 7 63 47 74 47 5 0 7 -1 5 -3z m-3503 -38 c3 -5 3 -9 1 -9
-7 0 -67 31 -67 35 0 7 60 -17 66 -26z m3744 21 c-8 -5 -22 -9 -30 -9 -10 0
-8 3 5 9 27 12 43 12 25 0z m-3165 -22 c27 -6 44 -13 38 -15 -14 -5 -123 25
-123 33 0 4 8 3 17 -1 10 -3 40 -11 68 -17z m295 12 c0 -5 -7 -7 -15 -4 -8 4
-15 8 -15 10 0 2 7 4 15 4 8 0 15 -4 15 -10z m2675 0 c-3 -5 -16 -15 -28 -21
-19 -9 -19 -8 3 10 28 23 34 26 25 11z m285 0 c-8 -5 -19 -10 -25 -10 -5 0 -3
5 5 10 8 5 20 10 25 10 6 0 3 -5 -5 -10z m130 -5 c-19 -7 -42 -13 -50 -13 -8
0 1 6 20 13 19 7 42 13 50 13 8 0 -1 -6 -20 -13z m167 -1 c-3 -3 -12 -4 -19
-1 -8 3 -5 6 6 6 11 1 17 -2 13 -5z m553 1 c0 -2 -13 -11 -30 -20 -38 -19 -40
-11 -2 9 31 17 32 18 32 11z m-3895 -15 c13 -5 14 -9 5 -9 -8 0 -24 4 -35 9
-13 5 -14 9 -5 9 8 0 24 -4 35 -9z m3275 -5 c-19 -7 -42 -13 -50 -13 -8 0 1 6
20 13 19 7 42 13 50 13 8 0 -1 -6 -20 -13z m-484 -10 c-11 -8 -25 -15 -30 -15
-6 1 0 7 14 15 32 19 40 18 16 0z m-3091 -5 l20 -9 -20 0 c-11 0 -27 4 -35 9
-13 9 -13 10 0 9 8 0 24 -4 35 -9z m205 0 c20 -6 21 -8 5 -8 -11 0 -31 4 -45
8 -20 6 -21 8 -5 8 11 0 31 -4 45 -8z m2790 0 c-8 -5 -19 -10 -25 -10 -5 0 -3
5 5 10 8 5 20 10 25 10 6 0 3 -5 -5 -10z m-4015 -18 c-3 -3 -11 0 -18 7 -9 10
-8 11 6 5 10 -3 15 -9 12 -12z m4522 12 c-3 -3 -12 -4 -19 -1 -8 3 -5 6 6 6
11 1 17 -2 13 -5z m-3377 -25 c16 -6 10 -7 -20 -3 -25 4 -54 10 -65 15 -24 10
48 0 85 -12z m137 15 c-3 -3 -12 -4 -19 -1 -8 3 -5 6 6 6 11 1 17 -2 13 -5z
m3188 -4 c-11 -5 -27 -9 -35 -9 -9 0 -8 4 5 9 11 5 27 9 35 9 9 0 8 -4 -5 -9z
m-4430 -18 c-3 -3 -11 0 -18 7 -9 10 -8 11 6 5 10 -3 15 -9 12 -12z m1282 12
c-3 -3 -12 -4 -19 -1 -8 3 -5 6 6 6 11 1 17 -2 13 -5z m3080 -10 c-3 -3 -12
-4 -19 -1 -8 3 -5 6 6 6 11 1 17 -2 13 -5z m196 -1 c-7 -2 -19 -2 -25 0 -7 3
-2 5 12 5 14 0 19 -2 13 -5z m2037 2 c0 -2 -13 -11 -30 -20 -38 -19 -40 -11
-2 9 31 17 32 18 32 11z m-8875 -15 c3 -6 -1 -7 -9 -4 -18 7 -21 14 -7 14 6 0
13 -4 16 -10z m2461 -78 c-5 -4 -166 76 -166 83 0 3 38 -14 85 -37 46 -23 83
-44 81 -46z m809 74 c65 -18 37 -19 -35 -1 -30 7 -46 14 -35 14 11 0 43 -6 70
-13z m215 4 c20 -6 21 -8 5 -8 -11 0 -33 4 -50 8 -27 7 -27 8 -5 8 14 0 36 -4
50 -8z m2840 0 c-8 -5 -19 -10 -25 -10 -5 0 -3 5 5 10 8 5 20 10 25 10 6 0 3
-5 -5 -10z m467 4 c-3 -3 -12 -4 -19 -1 -8 3 -5 6 6 6 11 1 17 -2 13 -5z m-50
-10 c-3 -3 -12 -4 -19 -1 -8 3 -5 6 6 6 11 1 17 -2 13 -5z m241 -1 c-10 -2
-28 -2 -40 0 -13 2 -5 4 17 4 22 1 32 -1 23 -4z m-71 -9 c-3 -3 -12 -4 -19 -1
-8 3 -5 6 6 6 11 1 17 -2 13 -5z m1366 -1 c3 -5 -10 -8 -28 -9 -19 0 -32 3
-29 8 6 10 51 11 57 1z m-8103 -78 c0 -3 -31 11 -70 30 -38 19 -70 38 -70 40
0 3 32 -11 70 -30 39 -19 70 -38 70 -40z m3225 66 c34 -7 35 -9 10 -9 -16 0
-43 4 -60 8 -42 11 -1 11 50 1z m3065 -1 c-8 -5 -22 -9 -30 -9 -10 0 -8 3 5 9
27 12 43 12 25 0z m387 4 c-3 -3 -12 -4 -19 -1 -8 3 -5 6 6 6 11 1 17 -2 13
-5z m3143 1 c0 -2 -10 -9 -22 -15 -22 -11 -22 -10 -4 4 21 17 26 19 26 11z
m-6765 -20 c28 -7 41 -13 30 -14 -11 0 -42 6 -70 13 -63 18 -28 19 40 1z m263
-2 c-10 -2 -26 -2 -35 0 -10 3 -2 5 17 5 19 0 27 -2 18 -5z m2907 -3 c-27 -12
-43 -12 -25 0 8 5 22 9 30 9 10 0 8 -3 -5 -9z m612 4 c-3 -3 -12 -4 -19 -1 -8
3 -5 6 6 6 11 1 17 -2 13 -5z m1213 -8 c0 -8 -7 -16 -15 -20 -12 -4 -13 -2 -2
14 14 24 17 25 17 6z m540 9 c0 -2 -18 -14 -40 -25 -22 -11 -40 -18 -40 -15 0
2 17 13 38 24 42 23 42 23 42 16z m-2260 -15 c-8 -5 -22 -9 -30 -9 -10 0 -8 3
5 9 27 12 43 12 25 0z m-3187 -7 c-7 -2 -19 -2 -25 0 -7 3 -2 5 12 5 14 0 19
-2 13 -5z m-3 -39 c36 -4 59 -9 51 -12 -18 -6 -241 29 -241 38 0 4 28 2 63 -5
34 -8 91 -17 127 -21z m115 27 c53 -11 5 -12 -55 -2 -34 6 -37 9 -15 9 17 1
48 -3 70 -7z m4890 -9 c-3 -3 -11 0 -18 7 -9 10 -8 11 6 5 10 -3 15 -9 12 -12z
m-4606 -8 c2 -2 -12 -4 -32 -4 -20 0 -38 4 -42 9 -5 9 64 4 74 -5z m3329 9
c-10 -2 -26 -2 -35 0 -10 3 -2 5 17 5 19 0 27 -2 18 -5z m2842 2 c0 -2 -10 -9
-22 -15 -22 -11 -22 -10 -4 4 21 17 26 19 26 11z m-2907 -12 c-7 -2 -21 -2
-30 0 -10 3 -4 5 12 5 17 0 24 -2 18 -5z m1187 2 c0 -2 -10 -9 -22 -15 -22
-11 -22 -10 -4 4 21 17 26 19 26 11z m210 -21 c0 -2 -9 0 -20 6 -11 6 -20 13
-20 16 0 2 9 0 20 -6 11 -6 20 -13 20 -16z m-1867 9 c-7 -2 -19 -2 -25 0 -7 3
-2 5 12 5 14 0 19 -2 13 -5z m2127 -8 c0 -2 -18 -14 -40 -25 -22 -11 -40 -18
-40 -15 0 2 17 13 38 24 42 23 42 23 42 16z m1200 1 c0 -2 -7 -7 -16 -10 -8
-3 -12 -2 -9 4 6 10 25 14 25 6z m-6402 -13 c-10 -2 -26 -2 -35 0 -10 3 -2 5
17 5 19 0 27 -2 18 -5z m3635 0 c-7 -2 -19 -2 -25 0 -7 3 -2 5 12 5 14 0 19
-2 13 -5z m-3890 -10 c-7 -2 -21 -2 -30 0 -10 3 -4 5 12 5 17 0 24 -2 18 -5z
m480 0 c-7 -2 -21 -2 -30 0 -10 3 -4 5 12 5 17 0 24 -2 18 -5z m2894 1 c-3 -3
-12 -4 -19 -1 -8 3 -5 6 6 6 11 1 17 -2 13 -5z m420 0 c-3 -3 -12 -4 -19 -1
-8 3 -5 6 6 6 11 1 17 -2 13 -5z m1500 -43 c2 -10 17 -22 31 -28 l27 -11 -25
2 c-15 2 -30 13 -37 26 -6 13 -23 30 -37 37 -14 8 -26 16 -26 19 0 12 63 -30
67 -45z m-8129 33 c29 -6 29 -41 0 -69 -21 -20 -23 -20 -40 -3 -10 10 -18 29
-18 42 0 13 -6 26 -12 29 -16 6 39 6 70 1z m2900 -1 c-10 -2 -26 -2 -35 0 -10
3 -2 5 17 5 19 0 27 -2 18 -5z m465 0 c-7 -2 -19 -2 -25 0 -7 3 -2 5 12 5 14
0 19 -2 13 -5z m2804 1 c-3 -3 -12 -4 -19 -1 -8 3 -5 6 6 6 11 1 17 -2 13 -5z
m1563 1 c0 -2 -22 -16 -50 -30 -27 -14 -50 -23 -50 -20 0 2 21 16 48 29 53 28
52 28 52 21z m459 -14 c6 -11 6 -22 -1 -32 -8 -11 -9 -11 -5 3 7 20 -11 37
-36 33 -9 -2 -15 0 -13 4 9 14 46 9 55 -8z m-5211 2 c-10 -2 -28 -2 -40 0 -13
2 -5 4 17 4 22 1 32 -1 23 -4z m-188 -19 c0 -2 -16 -4 -35 -4 -19 0 -35 4 -35
8 0 4 16 6 35 4 19 -2 35 -6 35 -8z m273 9 c-13 -2 -33 -2 -45 0 -13 2 -3 4
22 4 25 0 35 -2 23 -4z m266 -9 c8 -7 -64 -2 -89 6 -16 6 -6 7 30 3 30 -3 57
-7 59 -9z m3404 9 c-7 -2 -21 -2 -30 0 -10 3 -4 5 12 5 17 0 24 -2 18 -5z
m-520 -10 c-7 -2 -19 -2 -25 0 -7 3 -2 5 12 5 14 0 19 -2 13 -5z m310 0 c-7
-2 -19 -2 -25 0 -7 3 -2 5 12 5 14 0 19 -2 13 -5z m2856 3 c-10 -9 -69 -36
-69 -32 0 7 52 35 64 36 5 0 7 -2 5 -4z m-6521 -13 c-10 -2 -28 -2 -40 0 -13
2 -5 4 17 4 22 1 32 -1 23 -4z m85 -10 c-13 -2 -33 -2 -45 0 -13 2 -3 4 22 4
25 0 35 -2 23 -4z m95 -10 c-10 -2 -28 -2 -40 0 -13 2 -5 4 17 4 22 1 32 -1
23 -4z m210 0 c-10 -2 -26 -2 -35 0 -10 3 -2 5 17 5 19 0 27 -2 18 -5z m3025
0 c-7 -2 -21 -2 -30 0 -10 3 -4 5 12 5 17 0 24 -2 18 -5z m-2945 -10 c-10 -2
-26 -2 -35 0 -10 3 -2 5 17 5 19 0 27 -2 18 -5z m2879 1 c-3 -3 -12 -4 -19 -1
-8 3 -5 6 6 6 11 1 17 -2 13 -5z m-3414 -11 c-13 -2 -33 -2 -45 0 -13 2 -3 4
22 4 25 0 35 -2 23 -4z m120 -10 c-13 -2 -35 -2 -50 0 -16 2 -5 4 22 4 28 0
40 -2 28 -4z m304 1 c-3 -3 -12 -4 -19 -1 -8 3 -5 6 6 6 11 1 17 -2 13 -5z
m-199 -11 c-16 -2 -40 -2 -55 0 -16 2 -3 4 27 4 30 0 43 -2 28 -4z m308 0 c-7
-7 -87 -5 -95 3 -2 2 20 4 49 4 29 0 50 -3 46 -7z m2952 0 c-10 -2 -26 -2 -35
0 -10 3 -2 5 17 5 19 0 27 -2 18 -5z m2962 2 c0 -2 -10 -9 -22 -15 -22 -11
-22 -10 -4 4 21 17 26 19 26 11z m-2453 -11 c-3 -3 -12 -4 -19 -1 -8 3 -5 6 6
6 11 1 17 -2 13 -5z m-4034 -11 c-13 -2 -33 -2 -45 0 -13 2 -3 4 22 4 25 0 35
-2 23 -4z m3950 0 c-7 -2 -19 -2 -25 0 -7 3 -2 5 12 5 14 0 19 -2 13 -5z
m-3825 -10 c-10 -2 -28 -2 -40 0 -13 2 -5 4 17 4 22 1 32 -1 23 -4z m135 -10
c-13 -2 -35 -2 -50 0 -16 2 -5 4 22 4 28 0 40 -2 28 -4z m3275 0 c-10 -2 -26
-2 -35 0 -10 3 -2 5 17 5 19 0 27 -2 18 -5z m2848 -18 c-11 -8 -25 -15 -30
-15 -6 1 0 7 14 15 32 19 40 18 16 0z m-2373 -2 c-13 -2 -35 -2 -50 0 -16 2
-5 4 22 4 28 0 40 -2 28 -4z m-3905 -10 c-21 -2 -57 -2 -80 0 -24 2 -7 4 37 4
44 0 63 -2 43 -4z m3755 0 c-7 -2 -19 -2 -25 0 -7 3 -2 5 12 5 14 0 19 -2 13
-5z m-3610 -10 c-7 -2 -21 -2 -30 0 -10 3 -4 5 12 5 17 0 24 -2 18 -5z m3295
0 c-15 -2 -42 -2 -60 0 -18 2 -6 4 27 4 33 0 48 -2 33 -4z m189 1 c-3 -3 -12
-4 -19 -1 -8 3 -5 6 6 6 11 1 17 -2 13 -5z m-3219 -11 c-21 -2 -55 -2 -75 0
-21 2 -4 4 37 4 41 0 58 -2 38 -4z m3515 -10 c-7 -2 -19 -2 -25 0 -7 3 -2 5
12 5 14 0 19 -2 13 -5z m-4035 -10 c-16 -2 -40 -2 -55 0 -16 2 -3 4 27 4 30 0
43 -2 28 -4z m3560 -10 c-15 -2 -42 -2 -60 0 -18 2 -6 4 27 4 33 0 48 -2 33
-4z m-3051 -10 c-20 -2 -52 -2 -70 0 -17 2 0 4 38 4 39 0 53 -2 32 -4z m-454
-30 c-18 -2 -48 -2 -65 0 -18 2 -4 4 32 4 36 0 50 -2 33 -4z m487 -3 c0 -5 -7
-7 -15 -4 -8 4 -15 8 -15 10 0 2 7 4 15 4 8 0 15 -4 15 -10z m3008 3 c-21 -2
-55 -2 -75 0 -21 2 -4 4 37 4 41 0 58 -2 38 -4z m-3080 -10 c-10 -2 -28 -2
-40 0 -13 2 -5 4 17 4 22 1 32 -1 23 -4z m-455 -30 c-7 -2 -19 -2 -25 0 -7 3
-2 5 12 5 14 0 19 -2 13 -5z m160 0 c-23 -2 -64 -2 -90 0 -26 2 -7 3 42 3 50
0 71 -1 48 -3z m355 0 c-10 -2 -26 -2 -35 0 -10 3 -2 5 17 5 19 0 27 -2 18 -5z
m3020 0 c-21 -2 -55 -2 -75 0 -21 2 -4 4 37 4 41 0 58 -2 38 -4z m-3111 -9
c-3 -3 -12 -4 -19 -1 -8 3 -5 6 6 6 11 1 17 -2 13 -5z m-229 -31 c-21 -2 -55
-2 -75 0 -21 2 -4 4 37 4 41 0 58 -2 38 -4z m325 0 c-13 -2 -33 -2 -45 0 -13
2 -3 4 22 4 25 0 35 -2 23 -4z m2985 0 c-10 -2 -28 -2 -40 0 -13 2 -5 4 17 4
22 1 32 -1 23 -4z m525 0 c-13 -2 -35 -2 -50 0 -16 2 -5 4 22 4 28 0 40 -2 28
-4z m-4035 -10 c-10 -2 -28 -2 -40 0 -13 2 -5 4 17 4 22 1 32 -1 23 -4z m445
0 c-7 -2 -21 -2 -30 0 -10 3 -4 5 12 5 17 0 24 -2 18 -5z m-1392 -95 c4 -29 5
-83 2 -119 -5 -57 -2 -74 20 -120 33 -72 104 -144 184 -187 18 -9 80 -45 137
-79 57 -35 109 -63 116 -63 6 0 13 -7 16 -15 4 -8 10 -13 14 -10 5 3 13 -3 19
-12 10 -17 10 -17 12 0 1 9 3 22 4 27 1 6 3 23 4 39 0 17 12 43 25 58 l25 28
23 -23 c21 -20 23 -31 22 -112 -1 -49 2 -87 7 -84 5 2 35 -9 68 -25 64 -33 71
-30 71 28 0 31 25 71 45 71 28 0 47 -58 43 -130 -2 -38 0 -66 4 -64 10 6 38
-7 33 -16 -3 -4 11 -11 31 -15 20 -3 33 -9 30 -12 -6 -6 23 -32 36 -33 3 0 9
22 13 49 8 59 45 102 69 82 28 -23 44 -166 21 -184 -5 -4 1 -6 15 -5 16 2 24
-2 22 -10 -1 -8 2 -11 9 -7 13 9 60 -15 53 -26 -3 -5 3 -6 12 -2 11 4 15 3 10
-5 -3 -6 -1 -14 5 -18 8 -4 9 -3 5 4 -4 7 -3 12 3 12 5 0 12 18 16 40 4 22 15
50 25 62 40 49 77 -25 66 -130 -6 -51 -5 -53 15 -47 16 5 19 4 14 -5 -5 -8 -4
-11 3 -7 14 9 43 -3 36 -14 -5 -8 10 -13 29 -10 5 1 6 -2 3 -7 -3 -5 6 -14 19
-20 25 -11 25 -11 25 36 0 45 29 112 48 112 5 0 17 -9 28 -21 15 -17 19 -37
19 -105 0 -83 9 -105 37 -87 7 3 8 1 4 -5 -6 -9 68 -62 87 -62 4 0 7 15 7 34
0 19 5 47 11 63 33 88 93 30 88 -85 -3 -49 0 -56 20 -63 13 -6 19 -13 15 -20
-4 -8 -3 -9 4 -5 15 9 68 -19 76 -41 6 -15 8 -15 16 -3 6 8 10 28 10 43 0 57
46 111 69 83 15 -18 34 -113 27 -140 -7 -27 35 -73 55 -61 7 5 10 4 5 -3 -4
-6 19 -23 56 -42 34 -18 108 -58 164 -91 156 -90 305 -121 589 -122 254 -2
428 28 570 98 137 68 338 177 369 202 15 12 41 25 59 29 41 8 147 64 175 92
12 12 34 24 49 27 16 3 51 17 78 31 l50 25 -30 -25 c-16 -14 -34 -26 -40 -26
-5 0 -3 -5 5 -11 12 -8 11 -9 -5 -7 -14 2 -21 -3 -23 -19 -4 -24 -57 -48 -85
-37 -11 4 -17 1 -17 -9 0 -16 -45 -32 -62 -21 -7 4 -8 3 -4 -4 5 -8 0 -12 -13
-12 -12 0 -21 -4 -21 -10 0 -5 -6 -10 -14 -10 -8 0 -17 -11 -20 -25 -5 -18
-15 -26 -42 -31 -38 -7 -92 -33 -289 -141 -71 -39 -161 -80 -199 -92 -221 -68
-541 -85 -791 -41 -152 26 -195 39 -273 84 -124 73 -321 174 -351 181 -17 4
-37 14 -43 24 -7 10 -42 32 -78 50 -36 18 -69 37 -74 42 -6 5 -20 9 -33 9 -12
0 -35 11 -50 25 -32 29 -145 89 -186 99 -15 3 -36 14 -46 24 -10 9 -35 26 -57
38 -21 11 -57 30 -79 42 -22 12 -52 24 -67 27 -15 3 -35 14 -45 24 -21 22
-147 87 -185 96 -14 4 -36 16 -47 26 -30 28 -166 99 -190 99 -11 0 -32 11 -48
24 -15 13 -48 34 -73 46 -25 13 -56 31 -69 41 -13 10 -27 16 -32 13 -9 -5 -70
23 -79 36 -3 4 -30 20 -60 35 -30 15 -90 48 -132 72 l-77 44 -79 -12 -79 -12
-89 50 c-49 28 -131 71 -181 97 -51 25 -93 49 -93 52 0 5 223 -109 325 -166
38 -22 43 -22 104 -9 l65 14 -60 44 c-68 51 -116 100 -153 156 -25 39 -26 46
-29 210 -3 136 -1 168 9 158 7 -7 16 -36 20 -65z m1162 65 c-13 -2 -35 -2 -50
0 -16 2 -5 4 22 4 28 0 40 -2 28 -4z m280 0 c-7 -2 -21 -2 -30 0 -10 3 -4 5
12 5 17 0 24 -2 18 -5z m2990 0 c-7 -2 -19 -2 -25 0 -7 3 -2 5 12 5 14 0 19
-2 13 -5z m490 0 c-7 -2 -19 -2 -25 0 -7 3 -2 5 12 5 14 0 19 -2 13 -5z m64 1
c-3 -3 -12 -4 -19 -1 -8 3 -5 6 6 6 11 1 17 -2 13 -5z m-3979 -11 c-16 -2 -40
-2 -55 0 -16 2 -3 4 27 4 30 0 43 -2 28 -4z m379 1 c-3 -3 -12 -4 -19 -1 -8 3
-5 6 6 6 11 1 17 -2 13 -5z m4490 -156 c-2 -157 -3 -165 -29 -209 -28 -48
-110 -124 -189 -175 -40 -26 -45 -32 -30 -41 13 -9 12 -10 -9 -6 -27 5 -249
-104 -283 -139 -23 -23 -65 -34 -80 -19 -15 15 31 62 64 66 32 4 224 105 326
172 87 57 152 122 186 188 17 32 22 67 28 180 7 151 7 145 14 145 3 0 4 -73 2
-162z m-4970 146 c-3 -3 -12 -4 -19 -1 -8 3 -5 6 6 6 11 1 17 -2 13 -5z m306
-11 c-7 -2 -19 -2 -25 0 -7 3 -2 5 12 5 14 0 19 -2 13 -5z m277 -3 c-14 -4
-38 -8 -55 -8 l-30 0 30 8 c17 4 41 8 55 8 l25 0 -25 -8z m2883 3 c-7 -2 -19
-2 -25 0 -7 3 -2 5 12 5 14 0 19 -2 13 -5z m-3215 -10 c-10 -2 -28 -2 -40 0
-13 2 -5 4 17 4 22 1 32 -1 23 -4z m-85 -10 c-13 -2 -35 -2 -50 0 -16 2 -5 4
22 4 28 0 40 -2 28 -4z m-110 -10 c-13 -2 -35 -2 -50 0 -16 2 -5 4 22 4 28 0
40 -2 28 -4z m-2783 -18 c11 -13 10 -14 -4 -9 -9 3 -16 10 -16 15 0 13 6 11
20 -6z m3315 10 c-30 -12 -95 -22 -95 -15 0 5 15 11 33 13 45 5 74 6 62 2z
m2892 -1 c-3 -3 -12 -4 -19 -1 -8 3 -5 6 6 6 11 1 17 -2 13 -5z m-3199 -11
c-10 -2 -26 -2 -35 0 -10 3 -2 5 17 5 19 0 27 -2 18 -5z m3269 1 c-3 -3 -12
-4 -19 -1 -8 3 -5 6 6 6 11 1 17 -2 13 -5z m-3344 -11 c-7 -2 -19 -2 -25 0 -7
3 -2 5 12 5 14 0 19 -2 13 -5z m432 -2 c-11 -9 -96 -31 -117 -30 -7 0 14 9 47
19 72 21 82 23 70 11z m-497 -8 c-10 -2 -26 -2 -35 0 -10 3 -2 5 17 5 19 0 27
-2 18 -5z m3909 1 c-3 -3 -12 -4 -19 -1 -8 3 -5 6 6 6 11 1 17 -2 13 -5z
m-4004 -11 c-7 -2 -21 -2 -30 0 -10 3 -4 5 12 5 17 0 24 -2 18 -5z m3440 0
c-7 -2 -19 -2 -25 0 -7 3 -2 5 12 5 14 0 19 -2 13 -5z m-3175 -10 c-10 -2 -26
-2 -35 0 -10 3 -2 5 17 5 19 0 27 -2 18 -5z m352 -3 c0 -5 -8 -10 -17 -10 -15
0 -16 2 -3 10 19 12 20 12 20 0z m3227 4 c-3 -3 -12 -4 -19 -1 -8 3 -5 6 6 6
11 1 17 -2 13 -5z m-6197 -165 c0 15 53 29 76 20 50 -18 24 -119 -30 -119 -32
0 -66 33 -66 64 0 24 -14 33 -160 106 -88 44 -160 82 -160 85 0 3 77 -33 170
-80 94 -47 170 -81 170 -76z m2535 151 c-16 -4 -43 -8 -60 -8 -29 1 -29 1 5 8
19 4 46 7 60 8 22 0 22 -1 -5 -8z m392 -6 c-3 -3 -12 -4 -19 -1 -8 3 -5 6 6 6
11 1 17 -2 13 -5z m-499 -11 c-10 -2 -26 -2 -35 0 -10 3 -2 5 17 5 19 0 27 -2
18 -5z m237 -3 c-11 -5 -31 -8 -45 -8 -23 0 -22 1 5 8 42 11 65 11 40 0z m222
4 c-3 -3 -12 -4 -19 -1 -8 3 -5 6 6 6 11 1 17 -2 13 -5z m2898 -4 c25 -11 -1
-11 -35 0 -20 6 -21 8 -5 8 11 0 29 -3 40 -8z m-2840 -21 c-33 -10 -64 -18
-70 -18 -15 1 97 38 115 37 8 0 -12 -8 -45 -19z m5745 16 c0 -2 -10 -9 -22
-15 -22 -11 -22 -10 -4 4 21 17 26 19 26 11z m-6120 -15 c-34 -11 -60 -11 -35
0 11 5 29 8 40 8 16 0 15 -2 -5 -8z m3697 4 c-3 -3 -12 -4 -19 -1 -8 3 -5 6 6
6 11 1 17 -2 13 -5z m-3562 -13 c-6 -5 -26 -11 -45 -15 -35 -5 -35 -5 5 9 50
17 51 17 40 6z m3044 -7 c10 -9 -45 -3 -59 6 -11 7 -5 8 20 4 19 -4 37 -8 39
-10z m232 -2 c-7 -2 -18 1 -23 6 -8 8 -4 9 13 5 13 -4 18 -8 10 -11z m-5178
-22 c10 -26 33 -42 139 -96 71 -36 128 -67 128 -69 0 -3 -57 23 -127 58 -113
56 -134 64 -180 62 -29 -1 -58 -7 -65 -12 -20 -15 -214 -117 -205 -108 4 5 58
37 120 71 61 34 111 67 109 73 -5 23 19 51 44 51 19 0 29 -7 37 -30z m1662 19
c-51 -10 -92 -10 -50 1 17 4 44 8 60 8 25 0 24 -2 -10 -9z m520 -9 c-27 -10
-59 -19 -70 -19 -11 0 5 8 35 19 72 24 100 24 35 0z m5635 6 c0 -2 -7 -7 -16
-10 -8 -3 -12 -2 -9 4 6 10 25 14 25 6z m-6045 -22 c-27 -7 -57 -13 -65 -13
-21 1 70 27 95 27 11 0 -2 -6 -30 -14z m3120 2 c28 -8 41 -14 30 -14 -21 0
-107 25 -90 27 6 0 33 -6 60 -13z m2808 -1 c-3 -9 -8 -14 -10 -11 -3 3 -2 9 2
15 9 16 15 13 8 -4z m41 7 c3 -5 -1 -9 -9 -9 -8 0 -12 4 -9 9 3 4 7 8 9 8 2 0
6 -4 9 -8z m-5809 -12 c-27 -12 -43 -12 -25 0 8 5 22 9 30 9 10 0 8 -3 -5 -9z
m275 -15 c-35 -13 -66 -22 -68 -20 -5 5 100 44 118 44 8 0 -14 -11 -50 -24z
m2951 7 c-7 -2 -18 1 -23 6 -8 8 -4 9 13 5 13 -4 18 -8 10 -11z m-3291 -12
c-34 -11 -60 -11 -35 0 11 5 29 8 40 8 16 0 15 -2 -5 -8z m-227 -7 c-7 -2 -21
-2 -30 0 -10 3 -4 5 12 5 17 0 24 -2 18 -5z m622 -13 c-41 -18 -104 -36 -95
-27 9 9 104 45 120 45 8 0 -3 -8 -25 -18z m2545 10 c18 -12 2 -12 -25 0 -13 6
-15 9 -5 9 8 0 22 -4 30 -9z m597 4 c-3 -3 -12 -4 -19 -1 -8 3 -5 6 6 6 11 1
17 -2 13 -5z m-3597 -8 c0 -3 -33 -12 -72 -21 -40 -9 -82 -18 -93 -22 -11 -3
-17 -2 -13 2 12 13 178 51 178 41z m167 -2 c-3 -3 -12 -4 -19 -1 -8 3 -5 6 6
6 11 1 17 -2 13 -5z m2923 -3 c0 -4 -11 -6 -25 -3 -14 2 -25 6 -25 8 0 2 11 4
25 4 14 0 25 -4 25 -9z m547 3 c-3 -3 -12 -4 -19 -1 -8 3 -5 6 6 6 11 1 17 -2
13 -5z m-3517 -13 c-19 -11 -183 -57 -230 -65 -53 -9 -27 0 105 38 128 36 149
40 125 27z m3383 2 c-7 -2 -19 -2 -25 0 -7 3 -2 5 12 5 14 0 19 -2 13 -5z
m-3022 -29 c-29 -13 -59 -24 -65 -23 -16 0 86 48 104 48 8 0 -9 -11 -39 -25z
m2489 16 c20 -6 21 -8 5 -8 -11 0 -29 3 -40 8 -25 11 1 11 35 0z m-2770 -9
c-8 -5 -26 -12 -40 -15 l-25 -7 25 15 c14 9 32 15 40 15 13 0 13 -1 0 -8z
m5630 4 c0 -2 -10 -9 -22 -15 -22 -11 -22 -10 -4 4 21 17 26 19 26 11z m-2892
-25 c22 -11 47 -20 53 -20 7 0 10 -3 6 -6 -8 -8 -107 27 -107 38 0 11 1 11 48
-12z m99 14 c-3 -3 -12 -4 -19 -1 -8 3 -5 6 6 6 11 1 17 -2 13 -5z m570 0 c-3
-3 -12 -4 -19 -1 -8 3 -5 6 6 6 11 1 17 -2 13 -5z m-3087 -29 c-25 -13 -49
-24 -55 -24 -5 0 10 11 35 24 25 13 50 24 55 24 6 0 -10 -11 -35 -24z m2937
19 c-3 -3 -12 -4 -19 -1 -8 3 -5 6 6 6 11 1 17 -2 13 -5z m-3337 -13 c-25 -14
-201 -62 -213 -58 -6 2 18 11 53 20 36 9 83 23 105 31 46 17 80 21 55 7z
m3105 -9 c-3 -3 -11 0 -18 7 -9 10 -8 11 6 5 10 -3 15 -9 12 -12z m135 8 c13
-8 13 -10 -2 -10 -9 0 -20 5 -23 10 -8 13 5 13 25 0z m-2770 -7 c0 -5 -18 -18
-40 -31 -22 -12 -40 -19 -40 -15 0 6 53 41 78 52 1 1 2 -2 2 -6z m2310 -13
c19 -11 31 -19 25 -19 -5 0 -26 8 -45 19 -19 11 -30 19 -25 19 6 0 26 -8 45
-19z m2860 16 c0 -2 -7 -7 -16 -10 -8 -3 -12 -2 -9 4 6 10 25 14 25 6z m-5550
-10 c0 -6 -93 -37 -97 -32 -2 2 15 11 39 19 47 17 58 19 58 13z m3211 -14 c-7
-2 -18 1 -23 6 -8 8 -4 9 13 5 13 -4 18 -8 10 -11z m-2781 0 c0 -8 -84 -52
-98 -52 -6 0 88 59 96 60 1 0 2 -4 2 -8z m2248 -24 c17 -11 32 -22 32 -24 0
-5 -101 45 -110 53 -11 11 47 -10 78 -29z m-2589 18 c-8 -7 -272 -106 -283
-106 -14 1 254 108 273 109 8 1 12 -1 10 -3z m2891 -6 c8 -5 11 -10 5 -10 -5
0 -17 5 -25 10 -8 5 -10 10 -5 10 6 0 17 -5 25 -10z m-351 -30 c24 -17 40 -30
36 -30 -11 0 -95 49 -95 55 0 11 17 3 59 -25z m661 20 c8 -5 11 -10 5 -10 -5
0 -17 5 -25 10 -8 5 -10 10 -5 10 6 0 17 -5 25 -10z m2180 6 c0 -2 -7 -7 -16
-10 -8 -3 -12 -2 -9 4 6 10 25 14 25 6z m-5580 -11 c0 -6 -129 -45 -144 -44
-6 1 21 11 59 24 76 25 85 27 85 20z m590 0 c0 -8 -91 -58 -96 -52 -3 2 14 16
38 30 42 26 58 32 58 22z m2599 -93 c-10 -4 -150 65 -168 83 -7 7 29 -8 81
-33 52 -26 91 -48 87 -50z m-4794 78 c3 -6 -1 -7 -9 -4 -18 7 -21 14 -7 14 6
0 13 -4 16 -10z m4286 -25 c28 -19 48 -35 44 -35 -14 0 -105 53 -105 62 0 13
8 10 61 -27z m-4931 20 c0 -2 -18 -14 -40 -25 -22 -11 -40 -18 -40 -15 0 2 17
13 38 24 42 23 42 23 42 16z m2448 0 c-11 -12 -231 -105 -236 -101 -2 3 13 12
34 21 22 9 73 31 114 49 71 33 100 42 88 31z m67 -14 c-18 -17 -245 -132 -245
-124 0 7 233 130 250 132 2 1 0 -3 -5 -8z m331 -22 c-27 -16 -50 -28 -53 -25
-7 6 69 55 86 55 8 1 -7 -13 -33 -30z m2053 -37 c-12 -5 -90 53 -83 61 4 3 25
-8 49 -26 23 -18 39 -34 34 -35z m2835 49 c-10 -10 -21 -16 -24 -14 -3 3 4 11
14 19 28 20 33 17 10 -5z m-2473 -12 c16 -11 71 -40 121 -65 51 -24 82 -42 68
-38 -52 14 -258 124 -232 124 8 0 27 -9 43 -21z m-2321 6 c0 -8 -80 -58 -85
-53 -3 3 12 17 32 31 36 26 53 33 53 22z m347 -9 c0 -8 -6 -12 -15 -9 -11 5
-11 7 0 14 7 5 13 9 14 9 0 0 1 -6 1 -14z m-718 0 c-2 -2 -15 -9 -29 -15 -24
-11 -24 -11 -6 3 16 13 49 24 35 12z m2236 -28 c24 -17 43 -33 41 -36 -7 -6
-96 49 -96 59 0 14 6 11 55 -23z m765 5 l25 -14 -25 7 c-14 4 -36 13 -50 21
l-25 14 25 -7 c14 -4 36 -13 50 -21z m-1273 11 c-3 -3 -12 -4 -19 -1 -8 3 -5
6 6 6 11 1 17 -2 13 -5z m949 -36 c38 -22 91 -52 119 -64 27 -13 42 -24 32
-24 -15 0 -168 80 -222 117 -47 31 9 9 71 -29z m-5356 27 c0 -2 -10 -9 -22
-15 -22 -11 -22 -10 -4 4 21 17 26 19 26 11z m2720 -9 c-23 -20 -221 -138
-226 -133 -4 3 100 69 178 113 11 7 25 17 31 23 6 6 16 11 21 11 6 0 4 -6 -4
-14z m325 -6 c-10 -11 -23 -20 -29 -20 -6 1 0 10 13 20 30 26 39 26 16 0z m42
-10 c-19 -16 -38 -30 -43 -30 -4 0 5 14 21 30 16 17 35 30 42 30 8 0 -2 -13
-20 -30z m1388 20 c8 -13 -5 -13 -25 0 -13 8 -13 10 2 10 9 0 20 -4 23 -10z
m383 -29 c29 -19 50 -36 48 -39 -8 -7 -109 52 -114 67 -5 17 -1 15 66 -28z
m-2252 14 c-23 -18 -184 -101 -174 -90 11 12 172 103 183 104 6 0 2 -6 -9 -14z
m578 -1 c3 -9 2 -12 -4 -9 -6 4 -24 -5 -41 -19 -17 -14 -35 -26 -41 -26 -5 0
9 16 32 35 48 40 46 40 54 19z m796 -4 c91 0 130 -3 120 -10 -11 -7 -5 -10 25
-10 22 0 46 -4 54 -9 10 -6 -8 -9 -53 -9 -37 0 -70 -3 -73 -6 -4 -3 8 -6 25
-6 24 0 32 -4 32 -17 0 -14 -2 -15 -9 -5 -11 18 -25 -30 -22 -75 2 -24 -2 -33
-13 -33 -13 0 -16 11 -16 51 0 43 3 50 16 45 10 -4 14 -1 11 6 -2 7 -11 12
-20 10 -8 -1 -18 2 -22 8 -11 18 -23 10 -18 -12 4 -22 4 -22 -11 -4 -14 17
-15 14 -18 -40 -4 -73 -26 -86 -30 -17 -2 39 -6 47 -20 45 -11 -2 -18 3 -18
14 0 10 -3 14 -6 11 -4 -3 -7 -30 -8 -58 -1 -34 -6 -54 -15 -57 -10 -3 -12 6
-9 39 3 24 8 52 12 62 5 10 4 17 -3 17 -6 0 -11 -6 -11 -14 0 -9 -9 -14 -20
-13 -13 1 -19 6 -15 15 3 10 -1 11 -17 6 -17 -5 -20 -3 -15 10 8 20 -9 21 -28
2 -8 -7 -24 -13 -37 -12 -13 1 -27 -4 -33 -11 -8 -9 -14 -9 -30 4 -20 15 -20
15 3 10 12 -3 22 -1 22 4 0 5 17 10 38 11 l37 1 -37 4 c-41 5 -52 23 -15 24
21 0 21 1 2 8 -11 5 -25 5 -30 0 -6 -4 -17 -4 -25 1 -12 8 -10 10 8 10 13 0
21 4 18 8 -2 4 28 4 67 0 40 -4 133 -7 207 -8z m835 -62 c5 -5 3 -8 -6 -8 -21
0 -90 60 -83 72 4 5 22 -5 43 -24 20 -18 40 -36 46 -40z m507 18 c47 -30 96
-57 107 -61 18 -5 30 -25 16 -25 -8 0 -225 131 -225 136 0 11 23 0 102 -50z
m308 33 c13 -7 13 -8 0 -8 -8 0 -26 6 -40 15 l-25 15 25 -7 c14 -3 32 -10 40
-15z m-5681 7 c-2 -2 -15 -9 -29 -15 -24 -11 -24 -11 -6 3 16 13 49 24 35 12z
m3291 -11 c-7 -9 -27 -26 -44 -37 l-31 -22 20 24 c25 30 47 49 59 50 5 0 3 -7
-4 -15z m-460 2 c0 -5 -156 -100 -200 -122 -58 -29 -26 -6 82 61 96 58 118 69
118 61z m507 -17 c-2 -11 -7 -23 -12 -27 -4 -5 -5 -2 -1 5 13 23 -8 12 -31
-15 -12 -16 -22 -23 -23 -18 0 10 57 75 65 75 3 0 4 -9 2 -20z m1408 -12 c36
-34 43 -48 24 -48 -12 0 -69 60 -69 73 0 13 8 8 45 -25z m-1386 -17 c-20 -27
-39 -40 -39 -27 0 8 54 65 58 61 2 -2 -6 -17 -19 -34z m1940 -10 c42 -26 92
-56 111 -66 20 -10 29 -20 22 -23 -7 -2 -43 15 -80 39 -37 23 -84 53 -104 66
-36 22 -46 33 -31 33 3 0 40 -22 82 -49z m-5359 34 c0 -3 -36 -23 -80 -45 -44
-22 -80 -38 -80 -35 0 4 146 82 158 85 1 0 2 -2 2 -5z m2939 -8 c-33 -25 -202
-127 -205 -124 -3 2 41 34 98 70 56 36 104 64 107 62 2 -3 2 -6 0 -8z m1448 7
c-3 -3 -12 -4 -19 -1 -8 3 -5 6 6 6 11 1 17 -2 13 -5z m346 -30 c39 -48 24
-57 -19 -12 -37 40 -41 48 -21 48 6 0 25 -16 40 -36z m-1270 -9 c-24 -30 -43
-44 -43 -31 0 8 55 66 63 66 4 0 -5 -16 -20 -35z m1201 -11 c16 -19 25 -38 21
-42 -7 -7 -75 64 -75 79 0 15 25 -2 54 -37z m608 2 c35 -23 85 -56 112 -71 27
-16 44 -31 38 -33 -10 -3 -156 86 -211 129 -47 37 -1 18 61 -25z m-5852 23
c-25 -17 -76 -42 -68 -34 13 14 62 44 73 44 6 0 3 -4 -5 -10z m3573 -6 c-6 -2
-53 -34 -103 -70 -50 -36 -93 -63 -96 -60 -2 2 13 16 33 30 21 14 67 46 103
71 36 24 67 42 70 39 3 -3 0 -8 -7 -10z m518 -1 c-11 -21 -41 -48 -41 -38 0 4
7 18 16 31 19 29 40 34 25 7z m776 -2 c4 -12 3 -13 -5 -1 -13 19 -25 -17 -20
-66 2 -22 -2 -38 -10 -41 -8 -2 -12 8 -12 31 0 19 -3 49 -6 67 -7 30 -5 31 21
28 16 -2 30 -10 32 -18z m930 -45 c137 -102 141 -106 118 -98 -41 13 -237 163
-213 163 4 0 46 -29 95 -65z m-5548 -39 c18 4 37 2 46 -6 8 -6 20 -9 27 -5 7
4 5 0 -5 -8 -10 -8 -16 -20 -15 -27 5 -19 -26 -34 -55 -26 -20 5 -27 13 -27
31 0 21 -14 32 -100 75 -55 28 -100 52 -100 55 0 3 45 -17 100 -45 78 -39 105
-48 129 -44z m3869 64 c-22 -30 -38 -39 -38 -20 0 6 4 10 9 10 5 0 13 9 16 20
3 11 13 20 21 20 11 0 9 -7 -8 -30z m85 21 c4 -1 3 -10 -3 -21 -6 -11 -8 -20
-5 -20 12 0 20 5 18 13 -2 4 2 7 8 7 5 0 8 4 4 9 -8 15 9 21 25 10 12 -9 12
-12 2 -16 -7 -3 -17 -16 -22 -29 -10 -24 -30 -33 -30 -13 0 6 -9 8 -20 4 -24
-7 -26 7 -5 25 19 16 19 31 0 24 -8 -3 -17 -14 -20 -24 -3 -10 -13 -21 -22
-24 -14 -6 -14 -4 -1 16 8 13 18 28 21 35 4 6 15 10 25 8 9 -2 21 -4 25 -4z
m767 5 c0 -3 -4 -8 -10 -11 -5 -3 -10 -1 -10 4 0 6 5 11 10 11 6 0 10 -2 10
-4z m36 -9 c9 3 14 -2 14 -15 0 -12 5 -24 10 -27 12 -7 14 -45 2 -45 -4 0 -13
5 -20 12 -9 9 -12 9 -12 0 0 -24 -18 -11 -23 17 -6 29 3 85 10 64 3 -7 11 -9
19 -6z m157 -21 c31 -40 33 -46 13 -46 -8 0 -17 8 -20 17 -6 15 -8 15 -17 3
-8 -12 -9 -10 -4 7 3 12 1 24 -5 28 -12 7 -14 25 -2 25 4 0 19 -16 35 -34z
m-1524 11 c-2 -2 -22 -17 -44 -33 -22 -16 -64 -48 -93 -71 -29 -24 -58 -43
-64 -43 -9 0 -9 3 0 12 22 22 197 145 201 142 2 -2 2 -5 0 -7z m828 -54 c2
-18 -1 -33 -6 -33 -6 0 -10 10 -9 23 2 52 -4 61 -16 23 -7 -22 -18 -42 -26
-44 -10 -4 -11 0 -5 14 5 11 8 31 8 46 0 18 4 25 13 21 8 -3 14 1 14 8 1 25
23 -24 27 -58z m40 52 c11 -12 13 -24 6 -53 -5 -20 -13 -36 -18 -34 -11 3 -11
13 0 55 6 24 5 28 -10 25 -10 -2 -20 3 -22 10 -6 17 25 15 44 -3z m586 -7 c2
-13 8 -31 12 -40 4 -11 3 -18 -4 -18 -13 0 -42 61 -35 72 9 15 22 8 27 -14z
m-803 7 c0 -11 -33 -55 -41 -55 -4 0 0 13 9 30 15 26 32 40 32 25z m60 -39
c-6 -20 -16 -36 -21 -36 -12 0 -12 1 7 45 19 46 30 39 14 -9z m572 4 c7 -76
-16 -77 -28 -2 -5 34 -4 42 9 42 10 0 16 -13 19 -40z m831 -40 c54 -44 93 -80
85 -80 -14 0 -163 115 -187 144 -30 36 10 11 102 -64z m-2054 57 c-2 -1 -43
-35 -90 -75 -48 -40 -92 -72 -99 -72 -10 0 24 30 151 132 19 15 36 25 38 22 2
-2 2 -5 0 -7z m612 -21 c-6 -14 -15 -26 -21 -26 -6 0 -4 13 5 31 19 36 30 33
16 -5z m-4391 20 c0 -2 -7 -7 -16 -10 -8 -3 -12 -2 -9 4 6 10 25 14 25 6z
m3830 -21 c-30 -36 -171 -157 -177 -151 -3 3 5 14 18 25 13 11 55 49 94 84 38
36 72 64 74 61 2 -2 -2 -10 -9 -19z m639 -5 c-12 -32 -31 -41 -26 -12 3 22 16
42 27 42 5 0 4 -13 -1 -30z m153 -10 c-7 -19 -10 -21 -15 -7 -4 10 -2 17 3 17
6 0 10 8 11 18 0 9 3 12 5 6 3 -6 1 -21 -4 -34z m1133 -41 c52 -44 95 -83 95
-85 0 -15 -30 6 -110 73 -80 69 -102 93 -85 93 3 0 48 -36 100 -81z m-71 -24
c49 -47 81 -85 73 -85 -9 0 -56 38 -104 85 -48 46 -81 84 -73 84 8 0 55 -38
104 -84z m-1854 -10 c-47 -47 -90 -85 -96 -85 -17 0 148 167 166 169 8 0 -23
-37 -70 -84z m-3910 70 c0 -2 -18 -14 -40 -25 -22 -11 -40 -18 -40 -15 0 2 17
13 38 24 42 23 42 23 42 16z m4017 -47 c-65 -78 -117 -131 -123 -125 -4 3 28
45 71 92 79 87 118 111 52 33z m1605 30 c11 -13 47 -51 80 -86 65 -67 74 -94
14 -42 -53 47 -140 150 -126 150 7 0 21 -10 32 -22z m-1560 -75 c-60 -79 -92
-113 -92 -97 0 9 18 33 111 147 57 70 42 29 -19 -50z m715 65 c-3 -8 -6 -5 -6
6 -1 11 2 17 5 13 3 -3 4 -12 1 -19z m815 -56 c81 -102 81 -102 66 -102 -12 0
-148 159 -148 173 0 18 36 -13 82 -71z m-1409 45 c-42 -67 -116 -167 -123
-167 -16 0 -12 8 23 55 17 24 45 62 60 84 16 23 33 41 38 41 6 0 6 -6 2 -13z
m1318 -44 c23 -32 54 -73 67 -90 19 -26 21 -33 9 -33 -13 0 -137 157 -137 174
0 19 23 -1 61 -51z m-1241 43 c0 -7 -69 -126 -92 -159 -29 -41 -41 -22 -14 21
13 20 38 61 56 90 27 44 50 66 50 48z m1180 -88 c62 -95 71 -130 17 -66 -40
46 -101 158 -88 158 6 0 38 -41 71 -92z m-1114 65 c-12 -38 -88 -173 -97 -173
-5 0 -9 2 -9 5 0 16 92 185 101 185 6 0 8 -8 5 -17z m1028 -67 c47 -86 54
-106 36 -106 -12 0 -101 175 -93 184 10 9 9 11 57 -78z m-80 -7 c36 -81 43
-109 27 -109 -9 0 -81 159 -81 179 0 30 21 3 54 -70z m-3964 -99 c337 -175
426 -217 448 -214 6 1 22 3 35 4 19 2 18 3 -8 10 l-30 8 27 1 c34 1 79 -19 71
-32 -3 -6 -1 -7 5 -3 6 4 28 -2 49 -12 l37 -20 56 31 c30 17 52 27 47 22 -4
-5 -24 -18 -44 -29 -36 -21 -57 -61 -25 -49 10 4 13 2 8 -5 -5 -8 -1 -10 10
-5 12 4 15 3 10 -5 -5 -8 -1 -10 10 -5 13 5 15 3 9 -7 -5 -9 -4 -11 4 -6 15
10 152 -65 144 -78 -4 -6 10 0 31 12 46 27 62 29 21 2 -16 -11 -24 -20 -17
-20 7 0 10 -4 7 -10 -4 -6 1 -7 11 -3 13 5 15 3 9 -7 -5 -8 -4 -11 3 -6 6 4
34 -5 62 -19 l51 -26 -5 -44 c-4 -49 -4 -50 27 -34 16 7 14 4 -5 -11 -34 -26
-35 -46 -6 -77 24 -26 19 -32 -6 -7 -15 14 -16 11 -16 -30 0 -46 -12 -64 -33
-48 -21 16 -293 155 -282 144 11 -11 253 -139 347 -184 33 -15 60 -23 63 -17
7 11 105 62 105 54 0 -2 -22 -16 -50 -30 -27 -14 -50 -29 -50 -34 0 -4 9 -16
21 -27 28 -25 59 -87 59 -118 0 -14 8 -30 18 -35 9 -6 12 -11 6 -11 -15 0 -29
18 -42 58 -27 78 -19 73 -477 314 -188 99 -410 210 -400 200 6 -5 53 -32 105
-59 125 -66 570 -302 640 -341 33 -18 67 -47 85 -72 l30 -42 -2 -257 c-1 -141
-6 -276 -12 -301 -6 -32 -9 38 -10 243 -1 301 -5 332 -47 368 -11 9 -64 40
-119 69 -55 29 -131 69 -170 90 -67 36 -432 226 -810 420 -99 51 -218 114
-265 140 -135 75 -290 150 -310 150 -10 0 -30 -10 -44 -22 l-25 -23 -3 -516
c-4 -599 -16 -535 118 -599 45 -21 85 -44 89 -49 5 -10 -78 28 -162 72 -68 36
-67 28 -71 571 -2 269 -1 509 3 533 5 37 12 46 49 68 53 31 62 31 131 1 l55
-25 0 59 c0 55 2 59 33 78 17 11 40 21 51 21 10 1 166 -76 346 -169z m3087
158 c-48 -127 -102 -217 -83 -142 13 49 65 154 76 154 7 0 10 -6 7 -12z m48
-88 c-16 -52 -34 -90 -42 -90 -7 0 -11 6 -8 13 36 116 49 154 58 165 22 28 19
-3 -8 -88z m753 5 c28 -75 32 -102 12 -90 -14 8 -71 166 -64 177 10 15 19 -1
52 -87z m-5348 80 c0 -2 -13 -11 -30 -20 -38 -19 -40 -11 -2 9 31 17 32 18 32
11z m4694 -22 c-29 -121 -41 -158 -49 -154 -12 4 -13 -4 10 99 12 53 23 82 32
82 10 0 12 -8 7 -27z m76 15 c0 -7 -5 -50 -12 -95 -8 -58 -15 -83 -25 -83 -10
0 -12 10 -7 43 12 89 26 147 35 147 5 0 9 -6 9 -12z m74 -80 c-7 -100 -10
-112 -25 -102 -6 4 -8 37 -4 87 8 95 10 107 25 107 8 0 9 -27 4 -92z m81 -65
c-11 -75 -25 -46 -25 51 0 67 4 96 13 99 14 5 22 -84 12 -150z m88 65 c4 -80
-2 -123 -17 -107 -7 8 -15 186 -9 193 16 16 21 0 26 -86z m78 70 c0 -13 4 -56
8 -96 6 -67 1 -96 -14 -73 -7 13 -23 174 -18 184 9 15 23 6 24 -15z m90 -71
c9 -48 13 -89 11 -92 -18 -17 -28 14 -48 144 -5 34 -3 42 7 39 9 -3 20 -39 30
-91z m69 51 c6 -24 17 -64 24 -91 9 -29 10 -49 4 -53 -5 -3 -11 -4 -13 -2 -6
6 -45 156 -45 173 0 31 20 13 30 -27z m2710 6 c0 -2 -13 2 -30 11 -16 9 -30
18 -30 21 0 2 14 -2 30 -11 17 -9 30 -18 30 -21z m-670 -14 c0 -5 -7 -10 -15
-10 -8 0 -14 -6 -12 -12 1 -7 -6 -12 -15 -12 -10 1 -18 -2 -18 -6 0 -4 -14
-13 -31 -20 -17 -7 -35 -24 -39 -36 -10 -26 -50 -40 -77 -28 -10 4 -21 6 -26
6 -4 -1 -2 7 5 17 15 24 50 41 86 41 15 0 50 16 77 34 53 37 65 42 65 26z
m-7400 -15 c0 -2 -10 -9 -22 -15 -22 -11 -22 -10 -4 4 21 17 26 19 26 11z
m8320 -100 c0 -3 -45 17 -100 45 -55 28 -100 52 -100 55 0 3 45 -17 100 -45
55 -28 100 -52 100 -55z m610 31 c0 -2 -7 -7 -16 -10 -8 -3 -12 -2 -9 4 6 10
25 14 25 6z m-40 -20 c0 -2 -7 -7 -16 -10 -8 -3 -12 -2 -9 4 6 10 25 14 25 6z
m-6240 -31 c0 -3 -45 -27 -100 -55 -55 -28 -100 -48 -100 -45 0 4 186 102 198
104 1 1 2 -1 2 -4z m4480 1 c0 -2 -20 -16 -45 -30 -30 -18 -45 -34 -45 -47 0
-24 -66 -57 -83 -40 -5 5 -16 7 -24 4 -25 -10 18 36 49 53 15 8 35 14 45 15
10 0 34 11 53 24 33 23 50 30 50 21z m1289 -32 c14 -12 -19 -1 -35 12 -18 14
-18 14 6 3 14 -6 27 -13 29 -15z m-296 -174 c298 -151 382 -190 413 -190 30 0
36 3 24 11 -12 9 -12 10 3 5 10 -3 23 -6 28 -6 6 0 7 -5 3 -11 -4 -7 0 -9 12
-5 22 6 350 -157 347 -173 -2 -6 5 -7 14 -4 12 5 14 3 8 -7 -5 -8 -4 -11 3 -6
15 9 135 -52 127 -64 -3 -5 0 -7 8 -4 20 7 47 -22 47 -51 0 -12 -5 -68 -10
-124 -9 -86 -9 -104 4 -116 8 -8 19 -15 23 -15 19 0 94 -63 108 -91 22 -41 18
-59 -4 -23 -23 38 -48 56 -176 124 -55 29 -113 61 -130 70 -85 47 -609 311
-600 303 6 -6 57 -35 115 -66 299 -156 482 -253 655 -347 78 -43 83 -47 106
-91 18 -35 19 -62 19 -363 0 -206 -4 -327 -10 -331 -7 -4 -10 93 -11 282 -2
435 3 410 -105 471 -57 33 -628 331 -969 507 -93 48 -219 113 -280 145 -60 32
-168 88 -238 124 l-128 67 -32 -19 -32 -18 -6 -120 c-3 -65 -6 -301 -7 -523
l-3 -403 25 -32 c16 -22 58 -49 125 -81 56 -27 101 -53 101 -57 0 -5 3 -7 8
-5 4 3 13 -1 20 -9 21 -23 5 -16 -66 25 -37 22 -78 42 -92 46 -45 14 -99 54
-117 87 -15 27 -18 58 -18 170 0 76 -3 138 -6 138 -3 0 -14 7 -25 16 -18 15
-18 15 3 5 12 -6 24 -11 27 -11 9 0 3 245 -7 258 -5 6 -6 12 -1 12 5 0 8 46 6
102 -4 174 -2 357 5 374 4 11 -1 23 -13 32 -15 11 -15 13 -2 9 9 -3 22 1 29 9
7 9 30 24 51 35 l38 19 60 -25 c32 -14 61 -25 62 -25 10 0 -3 114 -14 122 -10
8 -9 9 3 5 9 -3 29 3 45 14 16 10 34 19 41 19 6 0 180 -85 386 -190z m-1363
159 c12 -9 12 -10 -4 -5 -10 4 -26 1 -35 -6 -14 -12 -14 -11 -2 5 16 20 21 21
41 6z m1730 -25 c0 -2 -13 2 -30 11 -16 9 -30 18 -30 21 0 2 14 -2 30 -11 17
-9 30 -18 30 -21z m-6070 -49 c0 -2 -22 -16 -50 -30 -27 -14 -50 -23 -50 -20
0 2 21 16 48 29 53 28 52 28 52 21z m4496 -7 c4 -7 3 -8 -4 -4 -7 4 -12 2 -12
-3 0 -6 -6 -10 -12 -8 -7 1 -12 -2 -11 -8 1 -5 -11 -11 -25 -12 -24 -1 -23 1
13 23 47 28 42 27 51 12z m-4047 -22 c-2 -2 -15 -9 -29 -15 -24 -11 -24 -11
-6 3 16 13 49 24 35 12z m-862 -12 c-3 -3 -12 -4 -19 -1 -8 3 -5 6 6 6 11 1
17 -2 13 -5z m763 -40 c-65 -37 -166 -88 -157 -78 12 12 180 103 192 103 6 1
-10 -11 -35 -25z m4042 14 c-7 -7 -12 -20 -12 -30 0 -11 -10 -20 -27 -24 -16
-3 -33 -7 -39 -9 -6 -2 -17 2 -23 8 -12 12 -15 51 -3 43 4 -2 18 2 32 10 32
17 89 19 72 2z m-5942 -3 c0 -2 -13 -11 -30 -20 -38 -19 -40 -11 -2 9 31 17
32 18 32 11z m7875 -5 c3 -6 -1 -7 -9 -4 -18 7 -21 14 -7 14 6 0 13 -4 16 -10z
m60 -38 c-3 -3 -11 0 -18 7 -9 10 -8 11 6 5 10 -3 15 -9 12 -12z m-7683 -34
c74 -40 99 -61 85 -74 -2 -3 -43 14 -91 38 -60 29 -86 48 -86 60 0 10 2 18 5
18 3 0 42 -19 87 -42z m-342 27 c0 -2 -22 -16 -50 -30 -27 -14 -50 -23 -50
-20 0 2 21 16 48 29 53 28 52 28 52 21z m8177 -71 c-4 -5 -137 66 -137 72 0 3
32 -12 70 -32 39 -20 69 -38 67 -40z m-2287 56 c0 -5 -8 -10 -17 -10 -14 0
-15 -2 -4 -9 11 -7 8 -11 -10 -17 -13 -4 -27 -7 -31 -6 -5 1 -8 -3 -8 -9 0 -6
-7 -9 -15 -5 -9 3 -15 0 -15 -7 0 -35 -28 -52 -83 -52 -31 -1 -53 3 -50 8 3 5
11 6 19 3 8 -3 14 0 14 7 0 15 74 60 83 51 3 -3 29 8 59 25 61 35 58 34 58 21z
m-3530 -4 c0 -5 -109 -64 -345 -186 -77 -40 -136 -69 -132 -65 6 7 465 253
475 255 1 0 2 -2 2 -4z m-2470 -41 c0 -2 -22 -16 -50 -30 -27 -14 -50 -23 -50
-20 0 2 21 16 48 29 53 28 52 28 52 21z m1910 0 c0 -2 -13 -11 -30 -20 -38
-19 -40 -11 -2 9 31 17 32 18 32 11z m6610 -20 c0 -2 -13 -11 -30 -20 -38 -19
-40 -11 -2 9 31 17 32 18 32 11z m170 -70 c0 -3 -31 11 -70 30 -38 19 -70 38
-70 40 0 3 32 -11 70 -30 39 -19 70 -38 70 -40z m-8212 19 c34 -19 62 -42 62
-49 0 -20 1 -20 -85 22 -54 27 -75 43 -75 56 0 23 9 20 98 -29z m7951 10 c22
5 23 5 8 -5 -22 -13 -54 -6 -82 16 -18 14 -16 14 14 0 19 -10 44 -14 60 -11z
m-1874 6 c3 -6 -1 -7 -9 -4 -18 7 -21 14 -7 14 6 0 13 -4 16 -10z m-6665 -5
c0 -2 -10 -9 -22 -15 -22 -11 -22 -10 -4 4 21 17 26 19 26 11z m-50 -29 c0 -2
-7 -7 -16 -10 -8 -3 -12 -2 -9 4 6 10 25 14 25 6z m3330 -6 c8 -5 11 -10 5
-10 -5 0 -17 5 -25 10 -8 5 -10 10 -5 10 6 0 17 -5 25 -10z m6170 0 c18 -12 2
-12 -25 0 -13 6 -15 9 -5 9 8 0 22 -4 30 -9z m-6740 -60 c-63 -32 -116 -57
-118 -56 -4 5 210 115 223 115 6 0 -42 -26 -105 -59z m3565 42 c-3 -3 -11 0
-18 7 -9 10 -8 11 6 5 10 -3 15 -9 12 -12z m510 -2 c3 -6 -1 -7 -9 -4 -18 7
-21 14 -7 14 6 0 13 -4 16 -10z m-1325 -20 c-6 -11 -13 -20 -16 -20 -2 0 0 9
6 20 6 11 13 20 16 20 2 0 0 -9 -6 -20z m48 -5 c-3 -3 -9 2 -12 12 -6 14 -5
15 5 6 7 -7 10 -15 7 -18z m-4695 -50 c84 -43 117 -65 117 -78 0 -24 -6 -22
-137 48 -81 43 -113 65 -113 78 0 22 -10 26 133 -48z m-188 43 c16 -7 25 -19
25 -35 0 -23 -1 -23 -29 -9 -16 9 -31 24 -34 36 -6 23 2 25 38 8z m5720 2 c3
-6 -1 -7 -9 -4 -18 7 -21 14 -7 14 6 0 13 -4 16 -10z m753 -48 c47 -24 82 -49
82 -57 0 -8 -2 -15 -5 -15 -3 0 -43 19 -90 42 -61 31 -85 48 -85 61 0 10 3 17
8 15 4 -2 44 -22 90 -46z m-713 28 c3 -6 -1 -7 -9 -4 -18 7 -21 14 -7 14 6 0
13 -4 16 -10z m-5589 -72 c84 -45 114 -66 114 -80 0 -24 7 -26 -128 47 -81 43
-110 64 -109 77 1 10 3 18 5 18 2 0 55 -28 118 -62z m5634 52 c8 -5 11 -10 5
-10 -5 0 -17 5 -25 10 -8 5 -10 10 -5 10 6 0 17 -5 25 -10z m-5727 -62 c67
-34 172 -90 233 -125 61 -35 115 -63 121 -63 16 0 36 -28 28 -40 -4 -7 -45 9
-113 46 -59 31 -172 91 -252 132 -80 41 -149 78 -154 83 -8 7 0 29 10 29 3 0
60 -28 127 -62z m8527 57 c0 -2 -10 -9 -22 -15 -22 -11 -22 -10 -4 4 21 17 26
19 26 11z m-6655 -34 c-14 -12 -252 -136 -242 -126 7 8 237 134 247 135 2 0 0
-4 -5 -9z m3930 -1 c3 -6 -1 -7 -9 -4 -18 7 -21 14 -7 14 6 0 13 -4 16 -10z
m-3465 -4 c0 -7 -193 -106 -198 -102 -2 3 185 104 196 106 1 0 2 -2 2 -4z
m-3415 -36 c-3 -5 -12 -10 -18 -10 -7 0 -6 4 3 10 19 12 23 12 15 0z m6535
-45 c0 -3 -22 6 -50 20 -27 14 -50 28 -50 30 0 3 23 -6 50 -20 28 -14 50 -28
50 -30z m430 45 c8 -5 11 -10 5 -10 -5 0 -17 5 -25 10 -8 5 -10 10 -5 10 6 0
17 -5 25 -10z m600 -80 c0 -22 -23 -17 -94 21 -51 27 -73 45 -70 54 5 11 23 6
85 -25 43 -22 79 -44 79 -50z m-7630 46 c0 -2 -7 -7 -16 -10 -8 -3 -12 -2 -9
4 6 10 25 14 25 6z m1210 -134 l0 -23 -27 19 c-16 11 -53 32 -83 47 -68 34
-80 43 -74 59 3 8 33 -2 94 -33 75 -38 90 -49 90 -69z m373 -106 c63 -34 87
-52 87 -67 0 -20 -15 -26 -24 -10 -3 5 -29 21 -58 36 -444 232 -438 229 -438
252 0 13 177 -73 433 -211z m5063 208 c18 -14 18 -14 -6 -3 -31 14 -36 19 -24
19 6 0 19 -7 30 -16z m-3376 -8 c0 -2 -91 -52 -202 -111 -237 -126 -245 -130
-236 -120 7 7 429 234 436 235 1 0 2 -2 2 -4z m4507 -71 c102 -50 122 -64 122
-83 1 -22 -6 -20 -129 45 -96 50 -130 72 -130 86 0 10 4 17 8 15 5 -1 63 -30
129 -63z m-5017 51 c0 -2 -7 -7 -16 -10 -8 -3 -12 -2 -9 4 6 10 25 14 25 6z
m4863 -46 c6 -23 6 -23 -27 -9 -26 12 -40 35 -31 50 9 13 52 -18 58 -41z
m-5096 -7 c-3 -10 -5 -4 -5 12 0 17 2 24 5 18 2 -7 2 -21 0 -30z m1184 2 c-23
-14 -46 -25 -50 -25 -10 1 73 50 84 50 6 0 -10 -11 -34 -25z m2514 -3 c-3 -3
-11 0 -18 7 -9 10 -8 11 6 5 10 -3 15 -9 12 -12z m570 0 c-3 -3 -11 0 -18 7
-9 10 -8 11 6 5 10 -3 15 -9 12 -12z m835 -36 c41 -21 125 -67 185 -101 61
-34 138 -76 173 -94 59 -30 72 -43 54 -55 -12 -7 -495 245 -508 265 -6 10 5
32 14 27 4 -2 41 -21 82 -42z m143 -17 c88 -45 117 -65 117 -80 0 -10 -2 -19
-4 -19 -3 0 -55 27 -116 60 -61 33 -116 60 -121 60 -5 0 -9 9 -9 20 0 11 4 20
8 20 5 0 61 -27 125 -61z m-1508 33 c-3 -3 -11 0 -18 7 -9 10 -8 11 6 5 10 -3
15 -9 12 -12z m585 -8 c0 -2 -9 0 -20 6 -11 6 -20 13 -20 16 0 2 9 0 20 -6 11
-6 20 -13 20 -16z m2230 16 c8 -5 11 -10 5 -10 -5 0 -17 5 -25 10 -8 5 -10 10
-5 10 6 0 17 -5 25 -10z m-7739 -56 c87 -43 91 -47 86 -73 -6 -27 -1 -30 146
-106 84 -43 201 -105 262 -138 60 -32 122 -64 138 -70 15 -6 27 -19 27 -29 0
-10 -2 -18 -4 -18 -2 0 -78 39 -168 86 -89 47 -274 140 -410 207 -213 105
-247 125 -248 145 0 23 14 30 26 11 7 -12 191 -99 208 -98 6 0 -28 20 -76 45
-66 33 -88 49 -88 64 0 11 2 20 5 20 3 0 46 -21 96 -46z m7784 28 c-3 -3 -11
0 -18 7 -9 10 -8 11 6 5 10 -3 15 -9 12 -12z m-5500 -1 c-14 -12 -252 -136
-242 -126 7 8 237 134 247 135 2 0 0 -4 -5 -9z m3291 -17 c18 -14 18 -14 -6
-3 -31 14 -36 19 -24 19 6 0 19 -7 30 -16z m-516 -30 c0 -2 -13 2 -30 11 -16
9 -30 18 -30 21 0 2 14 -2 30 -11 17 -9 30 -18 30 -21z m2785 18 c-3 -3 -11 0
-18 7 -9 10 -8 11 6 5 10 -3 15 -9 12 -12z m-2680 -30 c47 -39 13 -99 -47 -81
-39 11 -40 13 -40 44 0 27 26 54 52 54 8 0 24 -7 35 -17z m480 8 c3 -6 -1 -7
-9 -4 -18 7 -21 14 -7 14 6 0 13 -4 16 -10z m-5944 -26 c153 -72 179 -88 179
-106 0 -10 -3 -18 -6 -18 -20 0 -244 125 -244 136 0 19 8 18 71 -12z m149 -3
c41 -16 163 -72 270 -126 142 -70 196 -102 198 -116 2 -10 0 -19 -4 -19 -4 0
-80 37 -168 83 -89 46 -206 103 -261 127 -107 47 -125 57 -125 71 0 13 9 11
90 -20z m8065 19 c3 -6 -1 -7 -9 -4 -18 7 -21 14 -7 14 6 0 13 -4 16 -10z
m-1445 -93 c277 -144 410 -219 410 -233 0 -16 -21 -19 -36 -5 -5 4 -67 39
-139 76 -402 209 -400 208 -389 227 6 10 22 3 154 -65z m-725 45 c-3 -3 -11 0
-18 7 -9 10 -8 11 6 5 10 -3 15 -9 12 -12z m655 -87 c0 -22 -11 -19 -97 23
-83 40 -94 48 -86 68 6 17 183 -71 183 -91z m-3741 81 c-2 -2 -15 -9 -29 -15
-24 -11 -24 -11 -6 3 16 13 49 24 35 12z m-1179 -11 c0 -3 -27 -18 -60 -35
-33 -17 -60 -28 -60 -25 0 2 26 18 58 34 64 34 62 33 62 26z m4420 -60 c0 -3
-27 8 -60 25 -33 17 -60 33 -60 35 0 3 27 -8 60 -25 33 -17 60 -33 60 -35z
m2190 29 c0 -2 -13 2 -30 11 -16 9 -30 18 -30 21 0 2 14 -2 30 -11 17 -9 30
-18 30 -21z m-6065 16 c-3 -5 -12 -10 -18 -10 -7 0 -6 4 3 10 19 12 23 12 15
0z m575 -5 c0 -3 -27 -18 -60 -35 -33 -17 -60 -28 -60 -25 0 2 26 18 58 34 64
34 62 33 62 26z m-610 -10 c0 -3 -27 -18 -60 -35 -33 -17 -60 -28 -60 -25 0 2
26 18 58 34 64 34 62 33 62 26z m-1627 -224 c119 -58 167 -86 165 -97 -2 -8
-6 -15 -10 -14 -5 0 -141 66 -303 146 -231 115 -295 151 -295 165 0 16 20 9
138 -50 75 -37 213 -105 305 -150z m2595 207 c21 -21 14 -56 -14 -75 -24 -15
-29 -15 -53 -2 -19 11 -25 22 -23 40 6 42 61 66 90 37z m-3660 -24 c19 -5 23
-12 20 -38 -3 -30 -4 -31 -56 -31 -41 0 -49 2 -37 11 8 6 15 18 15 26 0 14 19
38 30 38 3 0 15 -3 28 -6z m7165 -18 c3 -7 39 -27 81 -46 58 -25 76 -37 76
-53 0 -15 -5 -18 -22 -14 l-23 6 24 -19 c13 -11 125 -73 250 -137 320 -165
346 -180 349 -197 2 -9 1 -16 -3 -16 -8 0 -415 209 -535 275 -52 29 -141 76
-198 105 -109 57 -121 65 -103 83 8 8 22 4 53 -13 24 -12 37 -17 31 -9 -18 19
-17 60 1 53 8 -3 17 -11 19 -18z m2227 -12 c0 -2 -13 2 -30 11 -16 9 -30 18
-30 21 0 2 14 -2 30 -11 17 -9 30 -18 30 -21z m-8794 -25 c22 -17 67 -45 102
-61 60 -28 83 -50 68 -66 -8 -8 -186 85 -203 106 -12 14 -18 52 -9 52 2 0 21
-14 42 -31z m226 -68 c114 -58 194 -105 196 -115 2 -9 0 -16 -3 -16 -9 0 -340
166 -383 192 -29 18 -35 38 -12 38 6 0 96 -45 202 -99z m1718 84 c0 -3 -27
-18 -60 -35 -33 -17 -60 -28 -60 -25 0 2 26 18 58 34 64 34 62 33 62 26z m580
-52 c-4 -56 -5 -57 -8 -14 -3 38 2 71 10 71 2 0 1 -26 -2 -57z m-2523 -38
c119 -56 159 -79 161 -95 2 -11 1 -20 -2 -20 -3 0 -63 29 -133 64 -71 35 -145
71 -165 80 -34 13 -53 46 -28 46 5 0 80 -34 167 -75z m-188 18 c42 -21 78 -39
79 -40 2 -1 2 -9 0 -18 -2 -13 -17 -9 -85 24 -51 25 -83 46 -83 56 0 21 4 20
89 -22z m6702 8 c51 -26 269 -143 388 -207 50 -27 70 -48 58 -60 -14 -14 -517
265 -517 287 0 14 13 11 71 -20z m-7231 14 c0 -3 -27 -18 -60 -35 -33 -17 -60
-28 -60 -25 0 2 26 18 58 34 64 34 62 33 62 26z m7232 -67 c43 -32 7 -32 -57
0 -49 24 -65 37 -65 52 0 20 2 20 50 -7 28 -15 60 -36 72 -45z m-118 7 c104
-48 139 -75 123 -91 -10 -10 -247 116 -247 131 0 8 2 15 4 15 2 0 56 -25 120
-55z m-4604 30 c0 -2 -13 -11 -30 -20 -38 -19 -40 -11 -2 9 31 17 32 18 32 11z
m-90 -50 c0 -3 -27 -18 -60 -35 -33 -17 -60 -28 -60 -25 0 2 26 18 58 34 64
34 62 33 62 26z m-2590 -10 c0 -2 -10 -9 -22 -15 -22 -11 -22 -10 -4 4 21 17
26 19 26 11z m7750 -162 c221 -109 300 -153 300 -165 0 -10 -3 -18 -7 -18 -5
1 -141 67 -303 148 -194 97 -296 154 -298 165 -2 9 -1 17 3 17 3 0 141 -66
305 -147z m-7840 112 c0 -2 -13 -11 -30 -20 -38 -19 -40 -11 -2 9 31 17 32 18
32 11z m6287 -87 c-2 -18 -4 -4 -4 32 0 36 2 50 4 33 2 -18 2 -48 0 -65z
m-3757 67 c0 -2 -13 -11 -30 -20 -38 -19 -40 -11 -2 9 31 17 32 18 32 11z
m5400 -217 c0 -10 -2 -18 -6 -18 -6 0 -348 176 -381 196 -13 8 -20 20 -17 29
8 21 404 -182 404 -207z m-7035 163 c249 -133 409 -218 495 -264 95 -50 140
-77 128 -77 -9 0 -715 375 -727 386 -16 15 27 -4 104 -45z m3939 34 c16 -12
17 -17 7 -28 -10 -9 -12 -9 -9 1 4 19 -33 42 -39 25 -3 -7 -9 -13 -15 -13 -6
0 -6 6 2 15 15 19 29 19 54 0z m2766 -69 c41 -20 75 -41 74 -46 -1 -6 -2 -15
-2 -20 -1 -6 -47 12 -102 40 -95 48 -100 52 -100 82 l0 32 28 -26 c15 -15 61
-43 102 -62z m60 -86 c11 0 14 -40 3 -40 -5 0 -77 32 -160 72 -123 59 -153 77
-153 94 0 18 16 12 150 -53 82 -40 154 -73 160 -73z m-6855 130 c-3 -5 -16
-15 -28 -21 -19 -9 -19 -8 3 10 28 23 34 26 25 11z m3960 -30 c-3 -5 -11 -10
-16 -10 -6 0 -7 5 -4 10 3 6 11 10 16 10 6 0 7 -4 4 -10z m2569 -26 c74 -35
86 -46 66 -59 -14 -9 -150 63 -150 80 0 20 -4 20 84 -21z m-6584 22 c0 -2 -7
-7 -16 -10 -8 -3 -12 -2 -9 4 6 10 25 14 25 6z m-40 -21 c0 -2 -10 -9 -22 -15
-22 -11 -22 -10 -4 4 21 17 26 19 26 11z m3960 -19 c0 -2 -7 -7 -16 -10 -8 -3
-12 -2 -9 4 6 10 25 14 25 6z m-4090 -51 c0 -2 -10 -9 -22 -15 -22 -11 -22
-10 -4 4 21 17 26 19 26 11z m3970 -10 c0 -2 -15 -12 -32 -21 -18 -9 -36 -22
-40 -28 -6 -8 -8 -7 -8 1 0 7 17 21 38 32 42 23 42 23 42 16z m-4065 -45 c-3
-5 -12 -10 -18 -10 -7 0 -6 4 3 10 19 12 23 12 15 0z m3992 -342 c-1 -57 -3
-11 -3 102 0 113 2 159 3 103 2 -57 2 -149 0 -205z m2965 273 c29 -16 96 -51
148 -78 267 -139 636 -337 645 -346 11 -10 -130 62 -465 238 -356 188 -405
215 -393 215 6 0 36 -13 65 -29z m-62 -6 c0 -2 -13 -11 -30 -20 -38 -19 -40
-11 -2 9 31 17 32 18 32 11z m2155 -43 c-3 -3 -11 0 -18 7 -9 10 -8 11 6 5 10
-3 15 -9 12 -12z m-2285 -27 c0 -2 -13 -11 -30 -20 -38 -19 -40 -11 -2 9 31
17 32 18 32 11z m-5516 -129 c107 -58 235 -125 285 -151 50 -25 91 -47 91 -50
0 -7 -167 78 -384 193 -156 83 -171 90 -190 76 -11 -8 -25 -14 -31 -14 -5 1 3
8 19 16 22 13 26 18 15 25 -8 5 -11 9 -6 9 4 0 94 -47 201 -104z m5387 55
l-23 -18 31 -13 c17 -7 34 -17 37 -22 5 -8 -72 26 -84 37 -4 3 49 34 58 34 3
0 -6 -8 -19 -18z m-5715 -56 c-11 -8 -25 -15 -30 -15 -6 1 0 7 14 15 32 19 40
18 16 0z m4910 -1 c18 -14 18 -14 -6 -3 -31 14 -36 19 -24 19 6 0 19 -7 30
-16z m-5476 -19 c0 -2 -10 -9 -22 -15 -22 -11 -22 -10 -4 4 21 17 26 19 26 11z
m5600 -50 c0 -3 -18 4 -40 15 -22 11 -40 23 -40 25 0 3 18 -4 40 -15 22 -11
40 -23 40 -25z m880 -10 c0 -3 -22 6 -50 20 -27 14 -50 28 -50 30 0 3 23 -6
50 -20 28 -14 50 -28 50 -30z m-6300 0 c0 -3 -18 4 -40 15 -22 11 -40 23 -40
25 0 3 18 -4 40 -15 22 -11 40 -23 40 -25z m290 31 c0 -2 -7 -7 -16 -10 -8 -3
-12 -2 -9 4 6 10 25 14 25 6z m5220 -71 c0 -3 -18 4 -40 15 -22 11 -40 23 -40
25 0 3 18 -4 40 -15 22 -11 40 -23 40 -25z m825 25 c3 -6 -1 -7 -9 -4 -18 7
-21 14 -7 14 6 0 13 -4 16 -10z m-6145 -5 c0 -2 -18 -14 -40 -25 -31 -16 -45
-18 -60 -10 -11 6 -20 13 -20 16 0 2 9 0 20 -6 15 -8 28 -6 57 9 43 23 43 23
43 16z m2230 -10 c0 -3 -27 -18 -60 -35 -33 -17 -60 -28 -60 -25 0 2 26 18 58
34 64 34 62 33 62 26z m3975 -23 c-3 -3 -11 0 -18 7 -9 10 -8 11 6 5 10 -3 15
-9 12 -12z m-5505 3 c0 -2 -13 -11 -30 -20 -38 -19 -40 -11 -2 9 31 17 32 18
32 11z m-1280 -9 c0 -2 -7 -7 -16 -10 -8 -3 -12 -2 -9 4 6 10 25 14 25 6z
m3377 -18 c-3 -8 -6 -5 -6 6 -1 11 2 17 5 13 3 -3 4 -12 1 -19z m2653 -33 c0
-3 -22 6 -50 20 -27 14 -50 28 -50 30 0 3 23 -6 50 -20 28 -14 50 -28 50 -30z
m830 19 c0 -2 -13 2 -30 11 -16 9 -30 18 -30 21 0 2 14 -2 30 -11 17 -9 30
-18 30 -21z m-5675 -14 c-3 -5 -12 -10 -18 -10 -7 0 -6 4 3 10 19 12 23 12 15
0z m4880 -28 c-3 -3 -11 0 -18 7 -9 10 -8 11 6 5 10 -3 15 -9 12 -12z m2270 8
c3 -6 -1 -7 -9 -4 -18 7 -21 14 -7 14 6 0 13 -4 16 -10z m-5715 -4 c0 -5 -69
-46 -78 -46 -6 1 69 50 76 50 1 0 2 -2 2 -4z m4390 -41 c0 -3 -18 4 -40 15
-22 11 -40 23 -40 25 0 3 18 -4 40 -15 22 -11 40 -23 40 -25z m-870 -1 c0 -2
-13 2 -30 11 -16 9 -30 18 -30 21 0 2 14 -2 30 -11 17 -9 30 -18 30 -21z
m1560 -20 c0 -2 -13 2 -30 11 -16 9 -30 18 -30 21 0 2 14 -2 30 -11 17 -9 30
-18 30 -21z m715 26 c3 -6 -1 -7 -9 -4 -18 7 -21 14 -7 14 6 0 13 -4 16 -10z
m-7345 -4 c0 -2 -7 -7 -16 -10 -8 -3 -12 -2 -9 4 6 10 25 14 25 6z m1460 -11
c0 -2 -13 -11 -30 -20 -38 -19 -40 -11 -2 9 31 17 32 18 32 11z m3645 -5 c3
-6 -1 -7 -9 -4 -18 7 -21 14 -7 14 6 0 13 -4 16 -10z m-2205 -55 c0 -3 -22 6
-50 20 -27 14 -50 28 -50 30 0 3 23 -6 50 -20 28 -14 50 -28 50 -30z m2320
-10 c0 -3 -18 4 -40 15 -22 11 -40 23 -40 25 0 3 18 -4 40 -15 22 -11 40 -23
40 -25z m890 -10 c0 -3 -22 6 -50 20 -27 14 -50 28 -50 30 0 3 23 -6 50 -20
28 -14 50 -28 50 -30z m-4760 20 c0 -2 -13 -11 -30 -20 -38 -19 -40 -11 -2 9
31 17 32 18 32 11z m2820 -24 c0 -6 -9 -9 -19 -8 -11 0 -17 5 -15 9 7 11 34
10 34 -1z m1085 -1 c3 -6 -1 -7 -9 -4 -18 7 -21 14 -7 14 6 0 13 -4 16 -10z
m-3114 -10 c10 -6 19 -19 19 -30 0 -19 6 -26 45 -56 16 -12 13 -12 -14 1 -27
13 -38 14 -61 5 -42 -17 -73 4 -64 45 10 44 35 56 75 35z m889 -36 c0 -2 -13
2 -30 11 -16 9 -30 18 -30 21 0 2 14 -2 30 -11 17 -9 30 -18 30 -21z m2340
-20 c0 -2 -13 2 -30 11 -16 9 -30 18 -30 21 0 2 14 -2 30 -11 17 -9 30 -18 30
-21z m-4150 21 c0 -2 -18 -14 -40 -25 -22 -11 -40 -18 -40 -15 0 2 17 13 38
24 42 23 42 23 42 16z m5020 -21 c0 -2 -9 0 -20 6 -11 6 -20 13 -20 16 0 2 9
0 20 -6 11 -6 20 -13 20 -16z m-2004 -10 c18 -14 18 -14 -6 -3 -31 14 -36 19
-24 19 6 0 19 -7 30 -16z m-4546 2 c0 -2 -7 -7 -16 -10 -8 -3 -12 -2 -9 4 6
10 25 14 25 6z m3530 -71 c0 -3 -27 8 -60 25 -33 17 -60 33 -60 35 0 3 27 -8
60 -25 33 -17 60 -33 60 -35z m2280 10 c0 -3 -22 6 -50 20 -27 14 -50 28 -50
30 0 3 23 -6 50 -20 28 -14 50 -28 50 -30z m-4390 30 c0 -2 -10 -9 -22 -15
-22 -11 -22 -10 -4 4 21 17 26 19 26 11z m3250 -40 c0 -3 -18 4 -40 15 -22 11
-40 23 -40 25 0 3 18 -4 40 -15 22 -11 40 -23 40 -25z m-3340 -10 c0 -2 -10
-9 -22 -15 -22 -11 -22 -10 -4 4 21 17 26 19 26 11z m3410 -31 c0 -2 -13 2
-30 11 -16 9 -30 18 -30 21 0 2 14 -2 30 -11 17 -9 30 -18 30 -21z m-2050 -10
c0 -2 -9 0 -20 6 -11 6 -20 13 -20 16 0 2 9 0 20 -6 11 -6 20 -13 20 -16z
m4085 16 c3 -6 -1 -7 -9 -4 -18 7 -21 14 -7 14 6 0 13 -4 16 -10z m91 2 c6 -4
15 -18 19 -32 4 -14 17 -33 29 -43 21 -17 21 -17 -7 -5 -22 9 -33 9 -48 0 -59
-37 -101 19 -57 76 11 13 47 16 64 4z m-5586 -6 c0 -2 -7 -7 -16 -10 -8 -3
-12 -2 -9 4 6 10 25 14 25 6z m4700 -42 c0 -2 -13 2 -30 11 -16 9 -30 18 -30
21 0 2 14 -2 30 -11 17 -9 30 -18 30 -21z m-3200 -20 c0 -2 -13 2 -30 11 -16
9 -30 18 -30 21 0 2 14 -2 30 -11 17 -9 30 -18 30 -21z m2090 -9 c0 -3 -18 4
-40 15 -22 11 -40 23 -40 25 0 3 18 -4 40 -15 22 -11 40 -23 40 -25z m-3690
20 c0 -2 -10 -9 -22 -15 -22 -11 -22 -10 -4 4 21 17 26 19 26 11z m4910 -51
c0 -2 -13 2 -30 11 -16 9 -30 18 -30 21 0 2 14 -2 30 -11 17 -9 30 -18 30 -21z
m-3220 -10 c0 -2 -9 0 -20 6 -11 6 -20 13 -20 16 0 2 9 0 20 -6 11 -6 20 -13
20 -16z m2090 -10 c0 -2 -13 2 -30 11 -16 9 -30 18 -30 21 0 2 14 -2 30 -11
17 -9 30 -18 30 -21z m-3920 -8 c0 -2 -7 -7 -16 -10 -8 -3 -12 -2 -9 4 6 10
25 14 25 6z m4070 -72 c0 -2 -9 0 -20 6 -11 6 -20 13 -20 16 0 2 9 0 20 -6 11
-6 20 -13 20 -16z m-2004 -20 c18 4 29 -2 41 -20 15 -23 15 -26 -4 -47 -11
-12 -23 -29 -26 -37 -4 -11 -6 -9 -6 5 -1 11 -10 26 -22 33 -14 9 -19 20 -16
33 4 16 -3 26 -29 41 -19 11 -34 22 -34 25 0 3 16 -5 36 -16 20 -12 46 -19 60
-17z m4049 18 c-3 -3 -11 0 -18 7 -9 10 -8 11 6 5 10 -3 15 -9 12 -12z m-5345
3 c0 -2 -10 -9 -22 -15 -22 -11 -22 -10 -4 4 21 17 26 19 26 11z m-940 -20 c0
-2 -10 -9 -22 -15 -22 -11 -22 -10 -4 4 21 17 26 19 26 11z m870 -20 c0 -2
-13 -11 -30 -20 -38 -19 -40 -11 -2 9 31 17 32 18 32 11z m3520 -41 c0 -2 -13
2 -30 11 -16 9 -30 18 -30 21 0 2 14 -2 30 -11 17 -9 30 -18 30 -21z m-3644 1
c12 -8 24 -12 26 -9 8 7 -7 -70 -16 -84 -10 -16 -83 -15 -88 0 -4 10 -11 10
-34 0 -29 -12 -29 -12 -7 5 11 10 24 33 28 50 10 50 51 67 91 38z m3714 -41
c0 -2 -13 2 -30 11 -16 9 -30 18 -30 21 0 2 14 -2 30 -11 17 -9 30 -18 30 -21z
m35 -14 c3 -6 -1 -7 -9 -4 -18 7 -21 14 -7 14 6 0 13 -4 16 -10z m-3896 -54
c-2 -2 -15 -9 -29 -15 -24 -11 -24 -11 -6 3 16 13 49 24 35 12z m4034 -127
c61 -30 37 -109 -33 -109 -25 0 -33 6 -45 32 -7 18 -10 35 -7 38 11 8 32 43
39 65 5 15 8 16 11 5 1 -8 17 -22 35 -31z"/>
<path d="M6163 8164 c-6 -17 14 -36 32 -31 6 2 11 13 13 25 3 17 -2 22 -18 22
-11 0 -23 -7 -27 -16z"/>
<path d="M3544 7945 c-4 -9 -2 -21 4 -27 15 -15 44 -1 40 19 -4 23 -36 29 -44
8z"/>
<path d="M5671 6584 c0 -11 3 -14 6 -6 3 7 2 16 -1 19 -3 4 -6 -2 -5 -13z"/>
<path d="M5673 6545 c0 -8 4 -12 9 -9 5 3 6 10 3 15 -9 13 -12 11 -12 -6z"/>
<path d="M5945 6410 c-22 -5 -157 -66 -300 -135 -143 -70 -397 -192 -565 -272
-498 -237 -557 -268 -614 -326 -66 -66 -109 -142 -135 -237 -20 -71 -21 -100
-21 -541 l0 -467 28 -53 c20 -39 38 -59 72 -77 81 -43 102 -36 495 158 193 94
377 185 410 200 342 161 656 315 688 337 51 35 119 127 149 201 l23 57 0 515
0 515 -24 41 c-38 68 -121 101 -206 84z m-565 -575 c16 -8 39 -29 52 -47 48
-68 20 -244 -56 -346 l-22 -31 28 -113 c40 -161 45 -225 22 -273 -16 -34 -31
-44 -132 -92 -103 -50 -116 -54 -142 -43 -16 7 -36 27 -45 46 -18 38 -11 115
25 294 l19 95 -22 15 c-122 84 -129 230 -18 374 87 113 209 164 291 121z"/>
<path d="M5270 5773 c-112 -43 -216 -217 -180 -303 17 -40 55 -70 91 -70 26 0
28 -3 24 -27 -50 -290 -65 -413 -49 -413 14 0 194 94 194 101 0 5 -12 63 -26
131 -53 255 -52 240 -16 286 45 57 73 125 79 193 5 52 3 60 -20 83 -25 25 -62
32 -97 19z"/>
<path d="M5695 4739 c-121 -61 -224 -115 -230 -120 -7 -7 -4 -8 7 -4 19 8 100
-34 92 -47 -3 -4 5 -8 18 -8 18 0 20 -2 8 -10 -13 -8 -13 -12 3 -27 17 -17 18
-17 11 0 -3 10 -1 17 5 17 6 0 11 -7 11 -16 0 -8 17 -32 39 -52 39 -38 91
-127 91 -159 0 -10 7 -27 15 -37 9 -12 15 -42 15 -78 0 -47 -4 -60 -20 -70
-11 -7 -20 -20 -20 -30 0 -9 -4 -20 -10 -23 -5 -3 -10 -15 -10 -25 0 -10 -9
-26 -21 -34 -12 -8 -18 -19 -14 -26 6 -9 2 -9 -13 -1 -29 15 -37 14 -21 -5 7
-9 22 -14 36 -11 12 2 20 1 18 -4 -8 -12 -75 -31 -90 -25 -9 3 -15 0 -15 -8 0
-8 -14 -16 -32 -19 -125 -20 -178 -30 -174 -34 8 -8 172 18 295 48 200 48 379
128 483 217 257 219 202 480 -137 650 -44 22 -89 43 -100 45 -13 4 -98 -33
-240 -104z m60 -759 c13 -6 15 -9 5 -9 -8 0 -22 4 -30 9 -18 12 -2 12 25 0z"/>
<path d="M3981 4390 c5 -22 19 -61 31 -87 27 -58 126 -166 145 -159 8 3 11 2
8 -4 -11 -18 210 -141 261 -144 12 0 20 -5 16 -10 -3 -5 5 -7 16 -4 12 4 20 2
17 -2 -8 -13 230 -79 241 -67 5 5 -82 26 -114 28 -14 0 -14 2 3 10 15 7 11 8
-15 3 -26 -4 -31 -3 -20 5 13 10 13 11 0 12 -10 0 -9 3 5 10 15 7 11 8 -15 3
-26 -4 -31 -3 -20 5 11 8 6 9 -20 4 -31 -6 -34 -5 -22 10 17 20 6 40 -18 34
-11 -3 -21 1 -24 9 -3 8 1 14 9 14 26 0 16 29 -12 36 -47 10 -53 13 -53 28 0
8 10 16 23 18 35 5 20 23 -19 22 -20 -1 -31 1 -26 5 6 3 -7 15 -29 25 -22 11
-56 34 -77 52 -35 29 -255 168 -287 180 -11 4 -11 -3 -4 -36z m559 -420 c18
-12 2 -12 -25 0 -13 6 -15 9 -5 9 8 0 22 -4 30 -9z"/>
<path d="M5628 3963 c7 -3 16 -2 19 1 4 3 -2 6 -13 5 -11 0 -14 -3 -6 -6z"/>
<path d="M4738 3903 c7 -3 16 -2 19 1 4 3 -2 6 -13 5 -11 0 -14 -3 -6 -6z"/>
<path d="M4803 3893 c9 -2 23 -2 30 0 6 3 -1 5 -18 5 -16 0 -22 -2 -12 -5z"/>
<path d="M4873 3883 c9 -2 25 -2 35 0 9 3 1 5 -18 5 -19 0 -27 -2 -17 -5z"/>
<path d="M5003 3873 c9 -2 23 -2 30 0 6 3 -1 5 -18 5 -16 0 -22 -2 -12 -5z"/>
<path d="M5068 3873 c12 -2 30 -2 40 0 9 3 -1 5 -23 4 -22 0 -30 -2 -17 -4z"/>
<path d="M5218 3873 c12 -2 30 -2 40 0 9 3 -1 5 -23 4 -22 0 -30 -2 -17 -4z"/>
<path d="M5293 3873 c9 -2 25 -2 35 0 9 3 1 5 -18 5 -19 0 -27 -2 -17 -5z"/>
<path d="M5433 3843 c9 -2 25 -2 35 0 9 3 1 5 -18 5 -19 0 -27 -2 -17 -5z"/>
<path d="M5339 3829 c26 -5 50 -5 60 1 11 7 -2 9 -44 9 l-60 -1 44 -9z"/>
<path d="M6637 7466 c-7 -17 18 -40 33 -31 5 3 10 15 10 26 0 23 -35 27 -43 5z"/>
<path d="M8397 6779 c7 -7 15 -10 18 -7 3 3 -2 9 -12 12 -14 6 -15 5 -6 -5z"/>
<path d="M8460 6746 c0 -2 7 -7 16 -10 8 -3 12 -2 9 4 -6 10 -25 14 -25 6z"/>
<path d="M8410 6736 c0 -3 9 -10 20 -16 11 -6 20 -8 20 -6 0 3 -9 10 -20 16
-11 6 -20 8 -20 6z"/>
<path d="M8500 6726 c0 -3 9 -10 20 -16 11 -6 20 -8 20 -6 0 3 -9 10 -20 16
-11 6 -20 8 -20 6z"/>
<path d="M9080 6686 c0 -3 9 -10 20 -16 11 -6 20 -8 20 -6 0 3 -9 10 -20 16
-11 6 -20 8 -20 6z"/>
<path d="M8701 6616 c2 -2 15 -9 29 -15 24 -11 24 -11 6 3 -16 13 -49 24 -35
12z"/>
<path d="M9180 6561 c0 -5 5 -13 10 -16 6 -3 10 -2 10 4 0 5 -4 13 -10 16 -5
3 -10 2 -10 -4z"/>
<path d="M8834 6546 c11 -9 24 -16 30 -16 12 0 7 5 -24 19 -24 11 -24 11 -6
-3z"/>
<path d="M8880 6526 c0 -7 193 -106 198 -102 2 3 -41 28 -97 55 -56 28 -101
49 -101 47z"/>
<path d="M9172 6447 c-2 -64 -3 -67 -22 -57 -11 6 -20 8 -20 6 0 -3 14 -13 31
-22 37 -19 49 -8 48 41 -1 31 -2 30 -15 -20 -7 -25 -9 -18 -14 45 l-6 75 -2
-68z"/>
<path d="M2277 6699 c7 -7 15 -10 18 -7 3 3 -2 9 -12 12 -14 6 -15 5 -6 -5z"/>
<path d="M2340 6666 c0 -2 7 -7 16 -10 8 -3 12 -2 9 4 -6 10 -25 14 -25 6z"/>
<path d="M1954 6566 c11 -9 24 -16 30 -16 12 0 7 5 -24 19 -24 11 -24 11 -6
-3z"/>
<path d="M2070 6546 c0 -2 7 -7 16 -10 8 -3 12 -2 9 4 -6 10 -25 14 -25 6z"/>
<path d="M2250 6455 c0 -2 18 -14 40 -25 22 -11 40 -18 40 -15 0 2 -18 14 -40
25 -22 11 -40 18 -40 15z"/>
<path d="M2660 6419 c7 -11 14 -18 17 -15 8 8 -5 36 -17 36 -7 0 -7 -6 0 -21z"/>
<path d="M2420 6365 c0 -3 54 -32 120 -65 66 -33 120 -58 120 -55 0 3 -54 32
-120 65 -66 33 -120 58 -120 55z"/>
<path d="M2658 6300 c2 -22 6 -40 8 -40 2 0 4 18 4 40 0 22 -3 40 -8 40 -4 0
-6 -18 -4 -40z"/>
<path d="M2676 6245 c-3 -8 -1 -15 4 -15 6 0 10 7 10 15 0 8 -2 15 -4 15 -2 0
-6 -7 -10 -15z"/>
<path d="M614 5173 c-7 -2 -10 -13 -7 -23 7 -26 43 -27 43 -1 0 20 -17 31 -36
24z"/>
<path d="M365 4660 c-4 -6 -1 -17 5 -25 16 -19 52 -2 44 20 -7 17 -40 20 -49
5z"/>
<path d="M1560 4086 c0 -7 7 -19 15 -26 19 -16 41 1 32 24 -8 20 -47 21 -47 2z"/>
<path d="M4958 3803 c6 -2 18 -2 25 0 6 3 1 5 -13 5 -14 0 -19 -2 -12 -5z"/>
<path d="M5027 3803 c-9 -2 -15 -9 -12 -14 7 -11 171 -11 199 0 18 7 18 8 -5
14 -13 4 -40 6 -59 5 -33 -1 -32 -1 10 -8 36 -6 29 -7 -40 -7 -65 0 -75 2 -45
7 l40 7 -35 0 c-19 1 -43 -1 -53 -4z"/>
<path d="M5118 3744 c13 -9 26 -13 30 -9 8 8 -17 25 -38 25 -9 0 -6 -6 8 -16z"/>
<path d="M5300 3750 c0 -5 5 -10 11 -10 5 0 7 5 4 10 -3 6 -8 10 -11 10 -2 0
-4 -4 -4 -10z"/>
<path d="M715 3640 c-9 -15 3 -30 24 -30 23 0 31 9 24 26 -6 16 -39 19 -48 4z"/>
<path d="M1887 3059 c7 -7 15 -10 18 -7 3 3 -2 9 -12 12 -14 6 -15 5 -6 -5z"/>
<path d="M1967 3059 c7 -7 15 -10 18 -7 3 3 -2 9 -12 12 -14 6 -15 5 -6 -5z"/>
<path d="M2170 2957 c0 -7 152 -88 156 -84 2 2 -32 22 -76 46 -44 23 -80 40
-80 38z"/>
<path d="M2620 2901 c0 -5 5 -13 10 -16 6 -3 10 -2 10 4 0 5 -4 13 -10 16 -5
3 -10 2 -10 -4z"/>
<path d="M2621 2754 c0 -11 3 -14 6 -6 3 7 2 16 -1 19 -3 4 -6 -2 -5 -13z"/>
<path d="M8871 2906 c2 -2 15 -9 29 -15 24 -11 24 -11 6 3 -16 13 -49 24 -35
12z"/>
<path d="M8970 2856 c0 -2 7 -7 16 -10 8 -3 12 -2 9 4 -6 10 -25 14 -25 6z"/>
<path d="M8540 2816 c0 -2 7 -7 16 -10 8 -3 12 -2 9 4 -6 10 -25 14 -25 6z"/>
<path d="M8660 2755 c0 -3 54 -32 120 -65 66 -33 120 -58 120 -55 0 3 -54 32
-120 65 -66 33 -120 58 -120 55z"/>
<path d="M9180 2746 c0 -2 8 -10 18 -17 15 -13 16 -12 3 4 -13 16 -21 21 -21
13z"/>
<path d="M9176 2675 c4 -8 10 -15 15 -15 4 0 6 7 3 15 -4 8 -10 15 -15 15 -4
0 -6 -7 -3 -15z"/>
<path d="M9160 2620 c0 -5 5 -10 11 -10 5 0 7 5 4 10 -3 6 -8 10 -11 10 -2 0
-4 -4 -4 -10z"/>
<path d="M8935 2613 c6 -6 63 -38 128 -73 l117 -62 -2 54 c-1 50 -2 50 -5 11
-2 -24 -6 -43 -9 -43 -3 0 -58 28 -122 62 -64 33 -112 56 -107 51z"/>
<path d="M780 2444 c-10 -11 -10 -17 0 -28 15 -19 40 -10 40 14 0 24 -25 33
-40 14z"/>
<path d="M7980 2395 c0 -7 81 -47 86 -43 2 3 -17 14 -41 26 -25 12 -45 20 -45
17z"/>
<path d="M4924 935 c-4 -9 -2 -21 4 -27 15 -15 44 -1 40 19 -4 23 -36 29 -44
8z"/>
</g>
</svg>
